<?xml version="1.0" encoding="utf-8"?>
<!-- Generator: Adobe Illustrator 19.0.0, SVG Export Plug-In . SVG Version: 6.00 Build 0)  -->
<svg version="1.1" id="Слой_1" xmlns="http://www.w3.org/2000/svg" xmlns:xlink="http://www.w3.org/1999/xlink" x="0px" y="0px"
	 viewBox="0 0 400 150" style="enable-background:new 0 0 400 150;" xml:space="preserve">
<style type="text/css">
	.st0{fill:#4B3128;}
	.st1{fill:#F5CE4C;}
	.st2{fill:#F2F4ED;}
	.st3{fill:#FFFFFF;}
	.st4{fill:#EEEEE7;}
</style>
<g>
	<g>
		<path class="st0" d="M161.9,54.1h-5.5v-6.8l6.6-6.9h8.6l6.6,6.9V79l-6.5,7.3H163l-6.6-7.3v-7.1l5.5,0.1v5l3.5,3.9h3.8l3.4-3.9
			V65.5h-10.6v-5.3h10.6V49.4l-3.4-3.6h-3.9l-3.4,3.6V54.1z"/>
		<path class="st0" d="M194.5,59.1h2.9l8.6-18.2h6l-9.9,21l11.3,24.2h-6l-10-21.5h-2.9v21.5H189V48.2l2.3-1.4v-0.4h-5.6v-5.5h8.8
			V59.1z"/>
		<path class="st0" d="M225.8,59.2h4.6l3.2-3.9v-5.5l-3-3.5h-3.1l-2.9,3.5v2.7H219v-5l6.2-6.8h7.7l6.3,6.8v10l-3.3,4l4.5,4.5v13.4
			l-6.6,7h-8.6l-6.5-7v-8.2h5.5v6l3.4,3.7h3.8l3.4-3.7v-8.6l-3.9-3.9h-5.1V59.2z"/>
		<path class="st0" d="M266.6,60.9v5.5h-10.2v14.1h8.1v-4.7h5.5v10.2h-19.1v-38l2.3-1.4v-0.4h-5.5v-5.5h21.8v10.7H264v-5.2h-7.6
			v14.6H266.6z"/>
		<path class="st0" d="M285.8,86.1h-5.5V48.2l2.2-1.3v-0.4h-5.4V41h21.7v10.6h-5.4v-5.2h-7.6V86.1z"/>
		<path class="st0" d="M323.7,60.9v5.5h-10.2v14.1h8.1v-4.7h5.5v10.2h-19.1v-38l2.3-1.4v-0.4h-5.5v-5.5h21.8v10.7H321v-5.2h-7.6
			v14.6H323.7z"/>
		<path class="st0" d="M343.4,45.7h-4.7v4.8h-4.9v-9.7h24.8v9.7h-4.9v-4.8h-4.8v40.4h-5.5V45.7z"/>
		<path class="st1" d="M362.7,46.4v-5.5h10.6v14.8h8.8l7,7.3v16.2l-7,6.9h-14.2V48.2l2.2-1.3v-0.4H362.7z M373.3,61.1v19.4h6.5
			l3.7-3.7V65.1l-3.7-4H373.3z"/>
	</g>
	<g>
		<path class="st0" d="M157.5,99.3v-2.2h9.3v4.1h-2.2v-1.9H161v4.6h3.5l2.8,3v5.7l-2.8,2.8h-5.7V100l0.9-0.5v-0.2H157.5z M161,106.2
			v7h2.6l1.5-1.5v-3.9l-1.5-1.6H161z"/>
		<path class="st0" d="M170.4,99.4v-2.2h3.5v6.4l-0.3,7.3h0.1l1.8-7.2l2.1-6.5h3v18.2h-2.2v-8.8l0.4-6.3h-0.1l-1.7,6.1l-2.9,9h-2.4
			v-15.3l0.9-0.5v-0.2H170.4z"/>
		<path class="st0" d="M183.8,99.3v-2.2h9.3v4.1h-2.2v-1.9h-3.6v4.6h3.5l2.8,3v5.7l-2.8,2.8h-5.7V100l0.9-0.5v-0.2H183.8z
			 M187.3,106.2v7h2.6l1.5-1.5v-3.9l-1.5-1.6H187.3z"/>
		<path class="st0" d="M198.8,99.3v-2.2h7.8v18.3h-2.2V99.3h-2.2l-2.3,16.1h-3.4v-2h1.4l1.9-13.3l1-0.6v-0.2H198.8z"/>
		<path class="st0" d="M209.8,99.4v-2.2h3.5v6.4l-0.3,7.3h0.1l1.8-7.2l2.1-6.5h3v18.2h-2.2v-8.8l0.4-6.3h-0.1l-1.7,6.1l-2.9,9h-2.4
			v-15.3l0.9-0.5v-0.2H209.8z"/>
		<path class="st0" d="M230.3,109.2h-1.9l-2.9,6.1H223l3.2-7l-2-2.1v-6.3l2.8-2.8h6.7v2.2h-1.3v16h-2.2V109.2z M228,99.4l-1.5,1.5
			v4.5l1.5,1.6h2.2v-7l0.9-0.5v-0.2H228z"/>
		<path class="st0" d="M241.3,99.4v-2.2h3.5v6.4l-0.3,7.3h0.1l1.8-7.2l2.1-6.5h3v18.2h-2.2v-8.8l0.4-6.3h-0.1l-1.7,6.1l-2.9,9h-2.4
			v-15.3l0.9-0.5v-0.2H241.3z"/>
		<path class="st0" d="M264,99.1h-1.9v1.9h-2v-3.9h10v3.9h-2v-1.9h-2v16.3H264V99.1z"/>
		<path class="st0" d="M282.5,112.5l-2.8,2.9h-3.5l-2.7-2.9V99.6l2.8-2.8h3.5l2.8,2.8V112.5z M280.3,111.7v-11.1l-1.5-1.5h-1.7
			l-1.5,1.5v11.1l1.5,1.6h1.6L280.3,111.7z"/>
		<path class="st0" d="M287.9,99.3v-2.2h7.8v18.3h-2.2V99.3h-2.2l-2.3,16.1h-3.4v-2h1.4l1.9-13.3l1-0.6v-0.2H287.9z"/>
		<path class="st0" d="M302.4,104.5h1.2l3.5-7.3h2.4l-4,8.5l4.6,9.8h-2.4l-4-8.7h-1.2v8.7h-2.2v-15.3l0.9-0.6v-0.2h-2.2v-2.2h3.5
			V104.5z"/>
		<path class="st0" d="M322,112.5l-2.8,2.9h-3.5l-2.7-2.9V99.6l2.8-2.8h3.5l2.8,2.8V112.5z M319.7,111.7v-11.1l-1.5-1.5h-1.7
			l-1.5,1.5v11.1l1.5,1.6h1.6L319.7,111.7z"/>
		<path class="st0" d="M325.3,97.1h6.7l2.7,2.8v4.5l-1.3,1.6l1.8,1.8v4.9l-2.7,2.7h-5.9v-15.2l0.9-0.6v-0.2h-2.2V97.1z M331.2,105
			l1.3-1.5v-2.7l-1.4-1.4h-2.2v5.6H331.2z M328.8,113.1h2.7l1.4-1.4v-2.9l-1.6-1.5h-2.5V113.1z"/>
		<path class="st0" d="M339.8,97.1h5.7l2.7,18.3H346l-0.7-4.8h-3.8l-0.7,4.8h-2.2l2.2-15.3l0.9-0.6v-0.2h-1.9V97.1z M343.6,99.3
			h-0.5l-1.3,9.1h3.2L343.6,99.3z"/>
		<path class="st0" d="M350.7,97.2h3.5v8.1h4.1v-8.1h2.2v18.2h-2.2v-8.1h-4.1v8.1H352v-15.3l0.9-0.5v-0.2h-2.2V97.2z"/>
		<path class="st0" d="M363.9,99.4v-2.2h3.5v6.4l-0.3,7.3h0.1l1.8-7.2l2.1-6.5h3v18.2h-2.2v-8.8l0.4-6.3h-0.1l-1.7,6.1l-2.9,9h-2.4
			v-15.3l0.9-0.5v-0.2H363.9z"/>
		<path class="st0" d="M384.3,109.2h-1.9l-2.9,6.1h-2.4l3.2-7l-2-2.1v-6.3l2.8-2.8h6.7v2.2h-1.3v16h-2.2V109.2z M382,99.4l-1.5,1.5
			v4.5l1.5,1.6h2.2v-7l0.9-0.5v-0.2H382z"/>
	</g>
</g>
<g>
	<g>
		<path class="st1" d="M62.1,22.6c-17.4,0-31.4,14.1-31.4,31.4c0,4.7,1.1,9.2,2.9,13.3c0.4-0.2,0.7-0.4,1.1-0.6
			c1.4-0.7,2.8-1.1,4.2-1.6c-0.2-0.4-0.3-0.8-0.3-1.2c0-0.4,0.1-0.8,0.3-1.2c0.3-0.6,0.6-1.1,0.6-1.8c0-0.5-0.1-1-0.2-1.5
			c-0.1-0.9-0.1-2.5,0.5-3.4c0,0,0,0,0-0.1c0.3-0.8,1.1-1.2,1.5-1.9c0.4-0.7,0.3-2,0.6-3c0-0.2,0.2-0.6,0.1-0.5
			c0.1-0.2,0.2-0.3,0.3-0.5c0.2-0.3,0.4-0.4,0.7-0.5c0.6-0.3,1.5-0.2,1.7-1c0.1-0.4,0.1-0.9,0.1-1.3c0-0.6,0.1-1.5,0.6-1.9
			c0.3-0.2,0.8-0.3,1.1-0.5c0.3-0.2,0.6-0.5,0.8-0.8c0.2-0.7,0.3-1.5,0.7-2.1c0.3-0.7,0.7-1.1,1.4-1.2c0.9,0,0.9-1.3,1.8-1.2
			c0.2,0,0.3,0,0.5,0.1c0-0.9,0.3-2.1,1.1-2.4c0.6-0.2,1.4,0,2-0.3c0.2-0.1,0.3-0.2,0.5-0.4c0.1-0.1,0.1-0.2,0.2-0.3
			c0.3-0.6,0.7-1.2,1.1-1.8c1-1.2,2.3-1.7,3.9-1.5c1,0.1,1.9,0.4,2.8,0.7c0.7,0.2,1.4,0.3,2.2,0.5c1,0.1,1.9-0.1,2.9-0.6
			c0.7-0.3,1.4-0.7,2.2-0.7c1.3,0,2.2,0.7,2.9,1.6c0.7,0.7,1.3,1.4,2.2,2c1.7,1,3.6,1.2,5,2.6c1.3,1.4,1.9,3.8,2.2,5.6
			c0.3,1.6-0.1,3.1-0.3,4.8c-0.1,1.3-0.2,2.6-0.2,3.9c0,1.2-1.1,2.1-1.7,3.1c-0.1,0.2-0.1,0.3-0.2,0.5c-0.3,1.3-0.4,2.7-0.3,4.1
			c0,0.6,0.6,3.5-0.3,4.1c-0.1,0.2-0.3,0.3-0.5,0.4c-0.3,0.1-0.6,0.1-0.9,0c-0.1,0-0.1,0-0.2-0.1c0.1,0.6-0.6,1.1-1,1.2
			c-0.3,0.1-0.7,0.2-1.1,0.3c0.1,0.2,0.2,0.5,0.2,0.6c0.1,0.9-0.1,1.7-0.7,2.4c-0.2,0.3-0.4,0.5-0.6,0.8c-0.1,0.2-0.3,0.3-0.3,0.8
			c0,0,0.6,0.9,0.6,0.9c0.2,0.5,0.3,0.9,0.2,1.5c0,0.4-0.2,0.8-0.5,1.2c0,0,0,0.1,0,0.1c-0.5,1.3,0.6,1.6,1,2.6
			c0.4,0.9,0.4,2.1,0,3.1c0,0.1,0,0.1-0.1,0.2c-0.1,0.3-0.2,0.5-0.3,0.8c0,0.1,0,0.1,0,0.2c10.5-5.1,17.7-15.8,17.7-28.2
			C93.6,36.7,79.5,22.6,62.1,22.6z"/>
	</g>
	<path class="st2" d="M76,52.7c0,0,2.3-0.3,2.5-0.3c0.1,0,2.2,0.4,2.2,0.4l0.7,1l-1.1,0.8L79.1,54l-1.4-0.8L76,52.7z"/>
	<path class="st3" d="M77.4,37.7c0,0,3.7,1.4,4.5,4.5c0.8,3.1-0.2,6.7,0,8.3c0.2,1.6-0.4,3.9-1,4.7c-0.6,0.8-1.2,3.1-1.1,4.1
		c0.1,1,0,4.6,0,5.2c0,0.6-0.9,0.8-1.4,0.6c-0.5-0.2-3.5-1-3.5-1l-1.7,0.6l-2.5,1.9l-2.4,1.2v-2.6l1.1-4.2l-2.3-4.2
		c0,0-0.7-3.6-0.7-3.6c0,0,0.7-5.5,0.8-5.8c0.1-0.4,4.5-6.3,4.5-6.3l2.8-2.1L77.4,37.7z"/>
	<g>
		<path class="st4" d="M41.3,55.8c-0.2,0.4-0.2,0.8-0.3,1.1c0.1-0.1,0.1-0.1,0.2-0.2c0.3-0.2,0.5-0.3,0.8-0.5c0.1,0,0.1-0.1,0.2-0.2
			c0.1-0.1,0.1-0.2,0.2-0.3c0.2-0.3,0.1-0.7,0.1-1.1c0-0.2,0.2-0.4,0.3-0.5c0.5-0.4,0.4-0.9,0.4-1.5c0-0.1,0-0.2,0-0.3
			c-0.2-1.3,0.7-2.3,2-2.6c0.6-0.2,1.5-0.4,1.6-1.1c0-0.1,0-0.2,0-0.3c0,0,0,0,0,0c0,0,0,0,0-0.1c0-0.4-0.1-0.9,0-1.3
			c0.1-0.9,0.7-1.4,0.9-2.2c-0.1,0.1-0.2,0.3-0.3,0.4c-0.1,0.1-0.2,0.2-0.3,0.2c0,0,0,0,0,0l0,0c0,0,0,0,0,0c0,0-0.1,0-0.1,0
			c-0.2,0.1-0.4,0.3-0.7,0.4c-0.8,0.5-0.6,1.7-0.9,2.5c-0.1,0.5-0.4,1-0.9,1.3c-0.3,0.2-0.7,0.2-1,0.4c-0.4,0.5-0.7,1.1-0.7,1.9
			c0,0.6,0.1,1.4-0.2,1.9C42.3,54.6,41.6,55.1,41.3,55.8z"/>
		<path class="st4" d="M84.7,95.7c-0.5-1-0.7-2.1-1.3-3c-0.1-0.2-1.7-2.5-2.2-2.5c0,0,0,0.1,0,0.1c0.1,0.3,0.2,0.5,0.2,0.8
			c0.1,0.3,0.1,0.6,0.2,0.8c0.2,0.2,0.4,0.5,0.5,0.7c0.2,0.3,0.4,0.6,0.6,1c0.1,0.1,0.2,0.3,0.3,0.4c0.4,0.6,0.8,1.2,1.2,1.7
			c0.7,1,1.4,2.1,2.1,3.2c0.4,0.5,0.7,1,1,1.6c0.5,0.9,1.2,1.8,1.7,2.8c0-0.1,0-0.3,0-0.4c-0.1-0.5-0.1-1-0.2-1.4
			c-0.1-0.3-0.1-0.7-0.2-1c-0.1-0.2-0.4-0.8-0.6-0.4c0,0.3,0,0.6,0,0.9c0,0-0.1,0-0.1,0c-0.2-1.5-0.4-3.3-1.6-4.4
			c0.1,0.5,0.2,1,0.2,1.6c0,0-0.1,0.1-0.1,0c-0.3-1.1-0.7-2.3-1.2-3.3c-0.3-0.6-0.7-1.3-1.3-1.7C84.5,94.1,84.7,94.9,84.7,95.7
			C84.8,95.7,84.7,95.7,84.7,95.7z"/>
		<path class="st4" d="M39.2,63c-0.1,0.5-0.2,0.9,0,1.4c0.1,0.1,0.1,0.3,0.2,0.4c0.2-0.6,0.6-1.1,1.1-1.4c0.4-0.2,0.9-0.4,1.3-0.6
			c0.5-0.2,0.6-0.6,0.8-0.9c0.3-0.9,0.4-2.1,1.4-2.5c1-0.4,1.5-0.5,1.6-1.7c0-0.6,0.1-1.2,0.5-1.7c0.6-0.7,1.4-1.1,1.6-2
			c0.3-1,0.2-1.9-0.1-2.8c0,0,0.1-0.1,0.1,0c0.4,0.7,0.6,1.6,0.4,2.4c0,0.6-0.1,1.2-0.3,1.7c-0.3,0.7-1.1,1.2-1.3,2
			c-0.2,0.7-0.1,1.7-0.8,2.3c-0.6,0.4-1.4,0.5-1.7,1.2c-0.3,0.6-0.3,1.3-0.6,1.9c-0.2,0.5-0.5,1-0.9,1.4c0.3-0.1,0.7,0,1-0.1
			c1-0.1,1.6-0.6,2.1-1.2c0.2-0.4,0.3-0.9,0.4-1.4c0.1-0.7,0.3-1.3,0.9-1.7c0.6-0.4,1.1-0.7,1.3-1.4c0-0.2,0.1-0.4,0.1-0.6
			c-0.1-0.7-0.1-1.5,0.5-2.1c0.3-0.4,0.7-0.6,1.1-0.8c1-0.4,0.9-1.1,0.7-2c0-0.2,0-0.3,0-0.5c-0.1-0.3,0-0.7,0.1-1
			c0.2-0.5,0.8-0.7,0.6-1.4c-0.1-0.4-0.3-0.7-0.3-1.1c-0.2-1.2,0.5-2.2,1.5-2.8c1-0.6,0.8-1.4,1.1-2.4c0.2-0.4,0.5-0.9,0.9-1.1
			c0.8-0.3,1.7,0.3,2.5-0.2c0.5-0.4,0.8-0.9,1.3-1.4c0,0,0.1,0,0.1,0.1c-0.4,0.6-0.8,1.4-1.5,1.8c0,0-0.1,0.1-0.1,0.1
			c-0.5,0.3-1.4,0.6-1.6,1.1c-0.3,0.8-0.3,1.5-1,2.1c-0.6,0.6-1.5,0.7-2.1,1.4c-0.8,1.1-0.1,2.1-0.5,3.2c0,0-0.1,0.1-0.1,0.1
			c0,0.1-0.1,0.1-0.1,0.2c-0.2,0.7-0.3,1.3-0.2,2c0.1,0.3,0.2,0.7,0.1,1c-0.2,1-1.1,1-1.8,1.5c-0.9,0.6-0.9,1.5-0.9,2.4
			c0,0.4,0,0.9-0.2,1.3c-0.4,0.6-1,0.9-1.6,1.3c-0.3,0.4-0.4,0.9-0.5,1.4c-0.1,0.7-0.4,1.5-1,1.9c-0.4,0.3-0.9,0.5-1.4,0.7
			c1.2,0.6,2.6,0.7,3.5-0.5c0.2-0.2,0.4-0.5,0.6-0.8c0.2-0.4,0.5-0.7,0.8-0.8c0.6-0.3,1-0.2,1.6-0.2c1.2,0.1,1.3-0.8,1.4-1.7
			c0.1-0.9,0.4-1.7,1.4-2c1-0.4,1.7-1.1,1.7-2.3c0-0.3,0-0.5,0-0.8c-0.1-0.4-0.1-0.9-0.1-1.3c0-0.4,0.1-0.7,0.3-1
			c0.1-0.2,0.3-0.3,0.4-0.5c0.3-0.4,0.3-0.7,0.2-1.2c-0.1-1,0.1-1.3,1-1.7c0.5-0.2,0.5-1.1,0.8-1.5c0.3-0.3,0.6-0.4,1-0.5
			c0.7-0.1,1.4,0.3,2-0.3c0.3-0.3,0.6-0.9,1-1.1c1-0.6,2.3-0.2,3.3,0.2c0.6,0.3,1.3,0.7,2,0.8c1,0.2,1.4-0.2,2.2-0.6
			c0.8-0.4,1.7-0.3,2.3,0.3c0.1,0.1,0.1,0.1,0.2,0.2c0,0,0,0,0,0.1c0,0,0,0.1,0,0.1c0,0,0,0-0.1,0c-1-0.6-1.8,0.3-2.7,0.7
			c-0.7,0.3-1.5,0.3-2.3,0.1c-1.4-0.4-3.4-2-4.8-1.2c-0.3,0.3-0.6,0.7-0.9,1c-0.3,0.3-0.9,0.3-1.4,0.3c-1,0.5-0.6,1.4-1.3,2.1
			c-0.2,0.2-0.4,0.4-0.7,0.4c-0.2,0-0.4,0-0.6,0c-0.6,0-0.3,1-0.3,1.3c0.1,0.3-0.1,0.6-0.3,0.8c-0.5,0.6-0.6,1-0.5,1.7
			c0.1,0.5,0.2,1.2-0.1,1.7c0.2-0.2,0.5-0.4,0.9-0.6c1-0.6,1.6-1.5,2.1-2.6c0.6-1.5,1.1-3.6,3-3.4c0.8,0.1,1-0.3,1.4-0.9
			c0.2-0.2,0.4-0.4,0.7-0.5c0.6-0.2,1.2-0.1,1.8,0.3c0.9,0.6,1.5,0.9,2.6,0.9c0.7,0,1.4,0.1,1.9,0.6c0.1,0.1,0,0.2-0.1,0.1
			c-1-0.6-1.7-0.2-2.7-0.4c-0.6-0.1-1.1-0.4-1.7-0.7c-0.4-0.2-0.9-0.6-1.3-0.4c-0.6,0.2-0.8,0.6-1.1,1c-0.3,0.4-0.7,0.6-1.2,0.5
			c-0.5,0-1-0.1-1.4,0.3c-0.4,0.5-0.6,1-0.9,1.6c-0.3,0.7-0.5,1.5-0.9,2.1c-0.4,0.6-0.8,1.2-1.5,1.6c-0.7,0.4-1.5,0.6-2,1.3
			c0,0,0,0,0,0c0,0.1-0.1,0.2-0.2,0.4c-0.4,1-1.8,1.7-2.3,2.7c-0.3,0.7-0.1,1.7-0.6,2.2c-0.4,0.5-1,0.5-1.4,0.9
			c-0.2,0.9,0.9,1.5,1.3,2.2c0.3,0.6,0.5,1.1,0.6,1.8c0.1,0.8,0.1,1.5-0.1,2.3c-0.2,1.2-0.7,2.3-1.1,3.5c-0.1,0.3-0.2,0.6-0.3,0.8
			c-0.2,0.9-0.4,1.7-0.4,2.6c0,1.2,0.1,2.3,0.3,3.5c0.3,1.6,0.5,3.3,0.3,4.9c0,0.2,0,0.3,0,0.5c0,0.1,0,0.2,0,0.2
			c0.5,1,1,1.9,1.5,2.9c1-1.1,1.1-2.9,1.2-4.3c0-1.2-0.2-2.4-0.4-3.5c0,0,0-0.1,0-0.1c-0.3-1.3-0.3-2.8-0.1-4.1
			c0.3-1.9,1.3-3.6,1.6-5.5c0.2-1.2,0.1-2.2-0.2-3.4c-0.2-0.8-0.4-1.7-0.4-2.5c0.1-1.6,0.6-3,1.5-4.3c0,0,0.1,0,0.1,0
			c-1,1.6-1.6,3.6-1.1,5.5c0.4,1.5,1,2.9,0.7,4.6c-0.3,1.8-1.3,3.4-1.7,5.1c-0.4,1.7-0.3,3.2-0.2,4.8c0.2,0.6,0.3,1.1,0.4,1.7
			c0.2,1.2,0.3,2.4,0.2,3.6c-0.1,0.8-0.2,2.9-1.2,3.4c0.1,0.2,0.2,0.4,0.3,0.6c0.7,1.2,1.6,2.3,2.3,3.5c0-0.4,0.1-0.8,0.3-1.2
			c0.3-0.7,0.7-1.3,1-2c0.3-0.8,0.7-1.6,0.8-2.4c0.1-1.4-0.2-2.9-0.6-4.2c0-0.2-0.1-0.3-0.1-0.5c-0.5-1.4-0.6-3.3-0.2-4.6
			c0.3-0.8,0.7-1.6,1.1-2.3c0.5-0.9,1.4-2.1,0.8-3.2c-0.3-0.5-0.7-1.1-0.6-1.8c0.2-1.1,0.9-1.9,0.6-3.1c-0.2-0.7-0.6-1.8-0.6-2.6
			c0-0.3,0-0.6,0.1-0.9c0.2-1.1,0.9-2,1.1-3.1c0.4-1.9-0.5-4.3,0.9-5.9c0.1-0.1,0.2-0.2,0.3-0.3c0.4-0.4,1-0.7,1.4-1.2
			c0.7-0.9,0.9-1.9,1.6-2.6c0.1-0.1,0.1-0.2,0.2-0.3c0.7-0.9,2.4-1.4,3.3-0.7c0,0,0,0.1,0,0.1c-0.7-0.3-1.8-0.2-2.4,0.3
			c-0.8,0.6-0.8,1.7-1.1,2.5c-0.2,0.6-0.5,1.1-1.1,1.4c-0.7,0.4-1.6,0.7-2,1.5c-0.9,1.8-0.2,3.7-0.8,5.6c-0.3,0.9-0.8,1.6-1,2.5
			c-0.1,0.4-0.1,0.7-0.1,1.1c0.1,1.2,1,2.4,0.8,3.7c-0.2,1-1,1.9-0.4,2.9c0.3,0.4,0.6,0.9,0.7,1.5c0,1.3-0.7,2.3-1.4,3.3
			c-0.4,1.4-0.7,2.7-0.6,4.2c0.1,1.8,0.7,3.5,0.8,5.3c0.1,1.7-0.5,3-1.2,4.5c-0.4,0.8-0.8,1.7-0.9,2.6c0,0.4,0,0.8,0.1,1.2
			c0.4,0.7,0.8,1.4,1.3,2c0.4,0.5,0.8,1,1.2,1.5c0.4-1,1.5-1.7,1.8-2.8c0.5-1.7-0.6-3.5,0.5-5.1c0.6-0.8,1.4-1.7,1.4-2.7
			c0-1-0.4-1.8-0.7-2.7c-0.6-1.7-0.7-3.5-0.3-5.2c0-0.1,0.1,0,0.1,0c0,1.1-0.1,2.2,0.1,3.3c0.2,1,0.6,1.9,1,2.9
			c0.7,1.5,0.4,2.8-0.5,4.1c-0.2,0.5-0.5,1-0.7,1.5c-0.4,1.2,0,2.2-0.1,3.4c-0.1,0.9-0.4,1.6-0.8,2.4c-0.3,0.5-0.6,1.1-0.7,1.7
			c0,0.2-0.1,0.4-0.1,0.6c0.3,0.2,0.6,0.4,0.9,0.6c0.4,0.2,0.8,0.4,1.3,0.6c0.1-0.5,0.4-1,0.6-1.4c0.7-1,1.9-1.9,2.2-3.1
			c0.3-1.5-0.4-2.9,0.2-4.3c0.2-0.6,0.6-1.1,1.1-1.6c0.5-0.8,1.1-1.6,1-2.6c0-1.1-0.7-1.7-1.1-2.7c-0.3-0.8-0.3-1.6-0.1-2.4
			c0.2-0.9,0.5-1.7,0.6-2.5c0-0.4-0.1-0.7-0.3-1.1c-0.5-1.2-0.7-2.3-0.3-3.6c0-0.1,0.1,0,0.1,0c-0.1,1.1-0.1,2.1,0.5,3.1
			c0.3,0.6,0.5,1.1,0.6,1.7c0.3,1.3-0.3,2.5-0.2,3.8c0.1,1.4,1.2,2.4,1.3,3.9c0,0.8-0.1,1.7-0.7,2.3c-0.1,0.2-0.3,0.5-0.4,0.7
			c-0.9,1.3-1.6,2.7-1.5,4.4c0.1,1.2,0,2.1-0.7,3.1c-0.6,0.9-1.7,1.6-1.7,2.8c0.6,0.2,1.2,0.4,1.7,0.5c0.5,0.1,1.1,0.1,1.7,0.1
			c0.4-0.4,0.8-0.8,1-1.4c0.1-0.5,0.2-1,0.3-1.5c0-0.4,0-0.8,0-1.2c-0.1-0.9-0.2-1.8,0.1-2.7c0.2-0.6,0.4-1.2,0.7-1.8
			c0.1-0.3,0.3-0.5,0.4-0.8c0.2-0.3,0.3-0.6,0.5-0.9c0.4-0.8,0.9-1.6,0.8-2.6c0-0.2-0.1-0.5-0.1-0.7c-0.4-1.3-1.6-2.5-1.2-3.9
			c0.2-0.9,1-2,0.9-2.9c-0.1-1-0.8-1.9-1.1-2.9c-0.6-2,0-4,0.8-5.9c0,0,0.1,0,0.1,0c-0.4,1.3-0.9,2.6-0.8,3.9c0,1.3,0.5,2.2,1.1,3.2
			c0.4,0.7,0.7,1.5,0.5,2.4c-0.2,0.9-0.9,1.8-0.8,2.7c0.1,1,0.8,1.7,1.1,2.6c0.3,0.7,0.4,1.5,0.2,2.2c-0.3,1.3-1.2,2.7-2,3.8
			c-0.1,0.2-0.2,0.3-0.2,0.5c-0.2,0.6-0.3,1.3-0.3,2c0,1,0.1,2,0.1,3c0,0.9,0,2.1-0.4,3c0.6,0.1,1.2,0.1,1.8,0.1
			c1.1-1.4,1.5-2.9,1.4-4.8c0-0.6-0.1-1.5,0-2.3c0.2-1,0.6-2,1-2.9c0.5-1.2,1.1-2.4,0.8-3.8c-0.2-0.9-0.9-1.6-1.1-2.4
			c-0.5-1.9,0.7-3.7,0-5.5c-0.6-1.8-1.5-3.1-1.1-5.1c0,0,0.1,0,0.1,0c-0.1,1.2,0.1,2.3,0.7,3.4c0.4,0.8,0.9,1.6,1,2.4
			c0.1,0.7,0,1.4-0.1,2c0.1,0,0.3,0,0.5,0.1c-0.1-0.3,0-0.6,0.2-0.8c0.2-0.2,0.4-0.1,0.7,0c-0.1-0.5,0-0.9,0.2-1.4
			c0.3-0.7,0.5-1.2,0.7-1.9c0.1-0.5,0-0.9-0.3-1.4c-0.3-0.4-0.8-0.8-1-1.3c-0.1-0.3-0.1-0.5-0.1-0.8c0,0,0-0.1,0-0.1
			c0-0.1,0.1-0.2,0.1-0.4c0.2-0.6,0.7-1.2,0.9-1.9c0-0.1,0-0.2,0-0.3c-0.1-0.7-0.7-1.6-0.6-2.3c0.2-0.9,0.9-1.5,1.1-2.4
			c0.1-0.4,0.2-1.3,0-1.8c-0.1,0-0.2,0-0.3,0c-1,0.2-2,0.4-2.9,0.9c-0.6,0.3-1.4,0.7-1.9,1.2c-0.5,0.5-0.9,1.1-1.3,1.7
			c0,0-0.1,0-0.1,0c0.7-1.8,2.1-2.9,3.8-3.7c0.9-0.4,1.8-0.5,2.7-0.7c0.7-0.2,1.8-0.6,1.3-1.3c-0.3-0.1-0.5-0.1-0.8-0.2
			c-0.5-0.2-1.1-0.6-1.7-0.5c-0.8,0-1.4,0.5-2.1,1c-0.4,0.5-0.9,0.9-1.5,1.2c-1.1,0.5-2.2,0.7-2.9,1.9c-0.5,0.9-0.8,2-1.6,2.7
			c-1,0.8-1.4,1.6-1.8,2.8c0,0.1-0.1,0-0.1,0c0.2-1,0.5-1.8,1.3-2.6c1-1,1.2-2.2,1.9-3.3c0,0,0.1-0.1,0.1-0.1c0-0.1,0-0.1-0.1-0.2
			l0,0l0,0c-0.4-1.2,0.1-2.5,0.5-3.6c0.3-0.9,0.7-1.9,0.4-2.9c-0.2-0.8-0.6-1.5-1-2.3c-0.6-1.1-1-2.3-1.2-3.4c0,0,0,0,0,0
			c0-0.2-0.1-0.4-0.1-0.6c0-1.1,0.2-2.3,1-3.3c0,0,0.1,0,0.1,0c-0.2,0.5-0.3,0.9-0.5,1.3c0.6-1,1.4-1.8,2-2c1.6-0.4,2.4-2.5,2.5-3.2
			c0.1-0.7-0.5-2.4,1.1-2.7c1.6-0.3,1.7-2.4,1.8-3.2c0.1-0.8,0.3-1.4,1.8-1.5c1.2-0.1,1.5-1.3,1.4-2.1c-1.1-0.4-2.3-0.7-3.1-1.6
			c-0.9-0.9-1.5-1.9-2.5-2.7c-0.7-0.3-1.4-0.5-2.2-0.2c-0.8,0.2-1.5,0.7-2.3,0.8c-0.5,0.1-1,0.1-1.4,0c-0.3,0-0.6,0-0.9-0.1
			c-0.5-0.1-1.1-0.2-1.7-0.4c-0.8-0.2-1.5-0.5-2.2-0.6c-0.1,0-0.2,0-0.3-0.1c-0.9-0.1-1.8,0.1-2.6,0.5c-0.9,0.5-1.4,1.3-2,2.1
			c-0.2,0.3-0.5,0.7-0.8,1c-0.3,0.4-0.7,0.6-1.1,0.7c-0.5,0.1-1.2,0-1.6,0.3c-0.5,0.4-0.7,0.9-0.8,1.5c0.2,0,0.4,0,0.6-0.2
			c0.4-0.3,0.7-0.6,1-1c0,0,0.1,0,0.1,0c-0.1,0.1-0.1,0.3-0.2,0.5c0,0,0,0,0,0c-0.2,0.5-0.6,1.1-1.1,1.4c-0.7,0.4-1.4,0-1.9,0.8
			c-0.3,0.5-0.6,0.3-1.2,0.4c-0.9,0.1-1.1,1.1-1.4,1.8c0.2-0.2,0.5-0.3,0.8-0.4c1.1-0.2,2.1,0.6,2.9-0.2c0,0,0.1-0.1,0.1-0.1
			c0,0,0,0,0,0c0,0,0-0.1,0.1-0.1c0-0.1,0.1-0.1,0.1-0.2c0,0,0.1,0,0.1,0c0,0.1-0.1,0.2-0.1,0.3c-0.2,0.6-0.8,1.2-1.5,1.2
			c-0.4,0-0.8-0.1-1.2-0.1c-0.2,0-0.3,0.1-0.5,0.2c-0.1,0.7,0.3,1.7-0.3,2.3c-0.5,0.5-1,0.9-1,1.7c0,0.3,0,0.6-0.1,0.9
			c-0.2,0.8-0.8,1.1-1.5,1.2c-0.6,0.1-1,0.4-1.3,0.7c-0.2,0.7-0.4,1.3-0.4,2c0,0.3,0,0.6,0,1c0,0.2-0.1,0.5-0.2,0.6
			c-0.2,0.2-1,0.7-1.1,0.8c-0.1,0.4,0,1-0.4,1.3c-0.5,0.3-1.1,0.6-1.4,1c-0.2,0.2-0.4,0.5-0.5,0.7c-0.2,0.6-0.3,1.2-0.3,1.9
			c0,0.5,0.1,1-0.2,1.4C40,62.2,39.5,62.5,39.2,63z"/>
		<path class="st4" d="M73.8,84c-0.4-0.2-0.6-0.1-0.7,0.1c0,0,0,0.1,0,0.1c0,0,0,0.1,0,0.1c0,0.4,0.2,1,0.3,1.2
			c0.3,0.5,0.6,0.9,1,1.4c0.7,0.8,1.4,1.6,2.1,2.4c0,0,0,0.1,0,0.1c-0.7-0.5-1.4-1.1-2-1.7c0.3,1.2,1.4,2.2,2.2,3.1c0,0,0,0.1,0,0
			c-0.2-0.1-0.7-0.5-1.1-0.9c0.3,1.1,1.2,1.8,2,2.5c0.8,0.7,1.7,1.1,2.6,1.6c0,0,0,0.1,0,0.1c-0.5-0.1-1-0.3-1.4-0.5
			c0.4,1,2,1.4,2.7,1.9c0,0,0,0.1,0,0.1c-0.3-0.1-0.7-0.2-1-0.4c-0.2,0-0.6,0-0.4,0.2c0.1,0.2,0.3,0.4,0.5,0.5
			c0.3,0.2,0.6,0.5,0.9,0.7c0.9,0.6,2,0.9,2.9,1.4c0.1,0,0,0.1,0,0.1c-0.8-0.1-1.6-0.4-2.3-0.8c-0.5-0.1-0.1,0.3,0.1,0.5
			c0.2,0.2,0.4,0.3,0.7,0.5c0.7,0.5,1.4,0.7,2,1.2c0,0,0,0.1,0,0.1c-0.6-0.1-1.3-0.4-1.8-0.7c0.2,0.3,0.3,0.6,0.6,0.8
			c0.5,0.5,1.1,0.8,1.6,1.2c0,0,0,0.1,0,0.1c-0.2-0.1-0.4-0.2-0.6-0.3c0.2,0.7,1.1,1.5,1.6,1.9c0.8,0.6,1.7,1.1,2.5,1.8c0,0,0,0,0,0
			c0,0,0,0,0,0c0.1,0,0.1-0.1,0-0.2c-0.1-0.1-0.2-0.3-0.2-0.4c-0.6-0.7-0.9-1.7-1.3-2.4c-0.5-0.9-1-1.8-1.6-2.7
			c-1.1-1.7-2.2-3.3-3.3-4.9c-0.5-0.7-1-1.4-1.5-2.1c-0.7-0.8-1.3-1.6-2-2.3c-0.4-0.4-0.7-0.8-1.1-1.2c-0.2-0.2-0.4-0.4-0.7-0.6
			c-0.6-0.5-1.2-0.9-1.6-1.6c0,0,0-0.1,0.1,0c1.5,1.2,2.9,2.5,4.2,3.8c0.5,0.5,1.1,1.1,1.7,1.6c-0.2-0.4-0.3-0.8-0.4-1.2
			c-0.3-0.7-0.6-1.4-1-2c-0.4-0.7-0.9-1.4-1.5-1.9c-0.4-0.4-0.8-0.6-1.3-0.9c0.4,0.6,0.6,1.3,0.8,1.9c0,0-0.1,0.1-0.1,0
			c-0.5-0.7-0.8-1.6-1.3-2.3c-0.3-0.4-0.6-0.8-1-1.2c-0.3-0.3-1.4-1.1-1.3,0.1C73.9,84,73.9,84,73.8,84L73.8,84
			C73.9,84,73.8,84,73.8,84z"/>
		<path class="st4" d="M72,102.6c0.7,0,1.5,0,2.2,0c0.3-0.7,0.7-1.3,0.9-2c0.2-0.7,0.2-1.4,0.2-2.1c0-0.4-0.1-0.8-0.2-1.2
			c0-0.1-0.1-0.2-0.1-0.4c0,0,0,0,0,0c-0.2-0.6-0.3-1.1-0.3-1.7c0-1.4,0.5-2.7,1.1-3.9c-0.4-0.5-0.7-1-0.5-1.6
			c-0.8-0.8-1.5-1.8-1.1-2.4c-0.5-0.6-0.9-1.2-1.1-1.9c0,0,0-0.1,0-0.1c0,0.2,0,0.4,0.1,0.7c0.1,0.5,0.4,0.8,0.6,1.2
			c0.7,1.5,0.6,3.2,0,4.7c-0.3,0.7-0.6,1.4-0.9,2.1c-0.2,0.8-0.3,1.6-0.3,2.5c0.1,1.2,0.4,2.5,0.2,3.7
			C72.6,100.9,72.5,101.9,72,102.6z"/>
		<path class="st4" d="M74.9,71.5c0-0.1,0-0.1,0-0.2C74.9,71.3,74.9,71.4,74.9,71.5z"/>
	</g>
	<path class="st0" d="M78.5,55.3c-0.8,0-1.6-0.1-2.4,0.1c-1,0.2-1.6,1.1-2.8,0.9c0,0,0,0,0,0c0.5,0.2,1,0.1,1.5-0.1
		c0.1,0.1,0.3,0.2,0.4,0.3c0.2,0.2,0.4,0.5,0.7,0.8c0.3,0.3,0.6,0.8,1,1.1c-0.1,0-0.3,0.1-0.4,0.1c-0.3,0-0.4-0.2-0.7-0.3
		c0,0-0.1,0-0.1,0.1c0.1,0.2,0.4,0.4,0.6,0.5c0,0,0.1,0,0.1,0c0.2,0.1,0.6,0,0.8-0.1c0,0,0,0,0.1-0.1c0.1,0,0.1-0.1,0.1-0.1
		c-0.4-0.6-1-1-1.4-1.5c-0.2-0.2-0.5-0.7-0.8-0.8c0.6,0,1.2,0.2,1.9,0.3c-0.1,0.1-0.1,0.4-0.2,0.5c0,0.2,0,0.5,0.2,0.5
		c0.4,0.1,0.6-0.5,0.7-0.8c0.2,0,0.4,0.1,0.5,0.1c0.1,0,0.2-0.1,0.1-0.2c0,0,0,0,0,0c0-0.2,0-0.3,0-0.5c0-0.1,0-0.2,0-0.3
		c0.1,0,0.1,0,0.2,0C78.8,55.8,78.8,55.3,78.5,55.3z M76.3,56.1c-0.2,0-0.5-0.1-0.8-0.1c0.8-0.2,1.7-0.2,2.5-0.1c0,0.1,0,0.2,0,0.3
		c0,0.1,0,0.3,0,0.4C77.6,56.3,76.9,56.2,76.3,56.1z"/>
	<path class="st0" d="M65.9,62.3c0.6-1.4-0.5-2.4-0.4-3.8c0,0-0.1-0.1-0.1,0c-0.1,0.6,0,1.1,0.2,1.6c0.3,1,0.2,1.7-0.4,2.6
		c-0.3,0.5-0.7,1.1-0.8,1.7c-0.1,0.7,0.2,1.3,0.4,1.9c0.7,2-1.5,3.1-2.1,4.7c-0.5,1.3-0.9,3.2,0.2,4.3c0,0,0.1,0,0.1-0.1
		c-1-2-0.1-4.1,1.3-5.6c0.9-0.9,1.5-2.1,1.2-3.4c-0.2-0.9-0.6-1.5-0.2-2.4C65.3,63.3,65.7,62.9,65.9,62.3z"/>
	<path class="st0" d="M70.9,43c-0.7-0.6-1.6-0.4-2.4-0.1c-0.8,0.3-1.3,0.2-2-0.2c-0.4-0.2-0.9-0.4-1.3-0.5c-0.7-0.1-1.5,0.4-2,0.8
		c0,0,0,0.1,0,0.1c0.4-0.2,0.8-0.4,1.2-0.6c0.6-0.2,1.2,0.1,1.6,0.5c0.4,0.3,0.9,0.7,1.4,0.7c0.7,0,1.3-0.3,2-0.5
		c1.3-0.3,1.8,1,2.4,1.8c0,0.1,0.1,0,0.1,0C71.9,44.2,71.5,43.5,70.9,43z"/>
	<path class="st0" d="M70,41.2c-0.6,0.1-1,0.5-1.6,0.6c-0.7,0-1.2-0.7-1.6-1.1c-0.6-0.6-1.4-1-2.2-1.1c-1.5-0.2-2.6,0.5-3.5,1.6
		c-0.4,0.5-0.8,1.1-1.2,1.6c-0.1,0.1-0.2,0.2-0.3,0.3c-0.8,0.7-1.5,0.9-2.5,0.9c-0.9,0-1.8,0.5-2.1,1.4c-0.3,0.7,0,1.7-0.8,2.1
		c-0.4,0.2-0.7,0.3-1,0.7C53,48.5,52.9,49,53,49.3c0.1,0.9,0.5,1.4,0,2.3c0,0,0,0.1,0,0c0.7-0.4,0.6-1,0.4-1.6c0-0.5,0-0.9,0.3-1.4
		c0.2-0.4,0.8-0.6,1.1-1c0.7-0.7,0.4-1.9,1.2-2.5c0.7-0.5,1.8-0.1,2.6-0.4c0.5-0.2,1.1-0.7,1.4-1.2c0.5-0.6,1-1.3,1.5-2
		c0.4-0.4,0.8-0.7,1.3-0.9c1.1-0.2,2.2,0,3.3,0.6c0.5,0.3,1,0.8,1.6,1c0.2,0.1,0.3,0.2,0.6,0.2c0.9,0.1,1.7-0.7,2.6-0.7
		c1.5,0,1.7,1.6,2.4,2.4c0,0,0.1,0,0.1,0C72.9,42.4,72,40.8,70,41.2z"/>
	<path class="st0" d="M74.9,40.6c-1-1-1.8-1.6-3.3-1.7c-0.8,0-1.6,0.1-2.4,0.2c-1,0.1-1.9-0.4-2.8-0.7c-1.5-0.6-2.9-0.8-4.5-0.4
		c-0.7,0.2-1.4,0.7-1.9,1.1c-0.4,0.3-0.8,0.6-1,1c0,0.1,0.1,0.1,0.1,0c0.2-0.3,0.5-0.5,0.8-0.7c1.2-0.7,2.4-1.1,3.8-1.1
		c1.6,0.1,2.7,1.1,4,1.8c1,0.6,2,0.4,3.1,0.1c0.8-0.2,1.5-0.5,2.3-0.4c0.5,0.1,1,0.4,1.5,0.6c0.1,0.1,0.3,0.2,0.4,0.3
		C74.9,40.8,75,40.7,74.9,40.6z"/>
	<path class="st0" d="M75.9,39.8c-0.8-1-1.7-1.6-2.9-2c-1.3-0.4-2.6,0.1-3.8-0.7c0,0-0.1,0,0,0.1c0.8,0.7,1.8,0.7,2.8,0.9
		C73.5,38.2,74.7,39,75.9,39.8C75.9,39.9,75.9,39.8,75.9,39.8z"/>
	<path class="st0" d="M76.9,38.9c-0.6-0.6-1.1-0.9-1.9-1.1c-1-0.3-1.4-1.1-2.1-1.8c-1.1-1.1-2.8-0.9-4.2-0.3c0,0,0,0.1,0,0.1
		c0.9-0.3,1.7-0.4,2.6-0.2c0.9,0.2,1.4,1,1.9,1.7C74.3,38.4,75.6,38.2,76.9,38.9C76.9,38.9,76.9,38.9,76.9,38.9z"/>
	<path class="st0" d="M67.5,35.8c-1,0.1-2-0.1-2.7-0.9c-0.4-0.4-0.8-0.6-1.4-0.7c-1.3-0.1-1.8,1.4-2.7,2c-0.6,0.4-1.5-0.1-2.2,0
		c-0.4,0-0.7,0.3-0.9,0.5c-0.8,0.8-0.9,2.3-2.1,2.6c-0.1,0-0.1,0.1,0,0.1c0.9,0,1.3-0.9,1.8-1.6c0.3-0.5,0.6-1,1.2-1.2
		c0.7-0.2,1.4,0.3,2.1,0.2c1.4-0.3,1.9-2.8,3.6-2C65.3,35.5,66.1,36.3,67.5,35.8C67.5,35.9,67.5,35.8,67.5,35.8z"/>
	<path class="st0" d="M101.5,107.1c-0.9,1-1.3,2.4-1.6,3.7c-0.2,1.2-0.5,2.9,0,4.1c0.1,0.2,0.3,0.1,0.3-0.1c0-0.1,0,0,0-0.1
		c0,0,0,0.2,0,0c0,0.1,0.1,0,0.1,0.1c0.1,0.3,0.5,0.2,0.4-0.1c-0.4-2-0.3-4.1,0.1-6.1C101.1,108.2,101.3,107.7,101.5,107.1
		C101.6,107.1,101.5,107.1,101.5,107.1z"/>
	<path class="st0" d="M103.8,115.5c-0.4-0.6-0.7-0.9-1-1.6c-0.4-0.9-0.3-2.7-0.3-2.9c0,0-0.1-0.1-0.1,0c-0.2,0.9-0.4,1.8-0.3,2.7
		c0.1,0.4,0.3,1.7,0.9,1.8c0.1,0,0.1,0,0.1-0.1c0,0,0,0,0,0c0.1,0.1,0.1,0.2,0.2,0.3C103.6,115.9,103.9,115.7,103.8,115.5z"/>
	<path class="st0" d="M111.9,112.5c-0.7,0.6-1.3,1.2-2.2,1.5c0,0,0,0.1,0,0.1C110.6,113.9,111.7,113.5,111.9,112.5
		C112,112.5,112,112.5,111.9,112.5z"/>
	<g>
		<path class="st3" d="M120.2,118.9c0.1-0.2,0.2-0.5,0.4-0.7c0.6-1.1,1.2-2.1,1.4-3.4c0.2-1.1,0.1-2.2,0.3-3.3c0-0.2,0-0.3,0-0.5
			c0-0.7,0.1-1.6-0.2-2.1c-0.1-0.1-0.2-0.2-0.3-0.3c-0.5-0.3-1-0.6-1.6-0.8c-0.3-0.1-0.7-0.2-1.1-0.3c-0.8-0.2-1.7-0.2-2.5-0.5
			c-0.9-0.3-1.7-0.4-2.6-0.4c-1,0-1.9-0.3-2.9-0.4c-0.8-0.1-1.4,0-2.2,0.4c-0.4,0.2-1.7,1.2-3.4,0.9c0,0,0-0.1,0-0.1
			c1.4,0.2,2.4-0.6,3.4-1.4c0.2-0.2,0.4-0.3,0.6-0.4c-1.6-0.6-3.3,0.1-4.6,1.2c-0.8,0.7-1.5,1.5-2.1,2.5c-0.1,0.1-0.1,0.2-0.2,0.3
			c-0.3,1-0.4,2.2-0.4,3l0.8,2.1l0.3,0.7l13.4,3.6l0,0c0,0,0.1,0.1,0,0.1c0.1,0.2,0.1,0.4,0,0.5c0.3-0.2,1-0.2,1.4-0.1
			c-0.1-0.3-0.1-0.6-0.1-1c0-0.2,0.1-0.5,0.1-0.7c0.1-0.6,0.2-1.3,0.5-1.8c0.1-0.1,0.1-0.2,0.2-0.3c-0.1-0.1-0.2-0.1-0.4-0.1
			c-0.3,0.1-0.7,0.1-1.1-0.1c-0.9-0.5-1.6-1.3-2.2-2.1c-0.4-0.6-0.9-1.1-1.4-1.5c-0.3,0.1-0.6-0.1-0.9-0.1c-0.4-0.1-0.8-0.2-1.2-0.4
			c0,0,0,0,0,0c0.5,0.1,0.9,0.2,1.4,0.2c0.1,0,0.2,0,0.3,0c-0.4-0.4-0.8-0.7-1.3-1c0,0,0-0.1,0.1-0.1c0.5,0.4,1.1,0.8,1.6,1.2
			c0.1,0,0.1,0.1,0.2,0.1c0,0,0,0,0,0c0.7,0.5,1.3,1.1,1.9,1.9c0.4,0.5,0.9,1.2,1.5,1.5c0.5,0.3,1.7,0.4,1.8-0.5
			c0-0.2,0-0.4-0.1-0.6c-0.3-0.7-0.8-1.3-1.1-1.9c-0.7-1.4-1.6-2.3-2.7-3.3c0,0,0-0.1,0,0c0.7,0.6,1.5,1.2,2.1,1.9c0,0,0,0,0,0.1
			c0.4,0.4,0.7,0.8,1,1.2c0.3,0.4,0.7,0.8,1,1.3c0.1-0.5,0.1-0.9,0.2-1.4c-0.1-0.1-0.1-0.3-0.2-0.4c-0.1-0.2-0.2-0.4-0.4-0.6
			c0,0,0-0.1,0.1-0.1c0.2,0.2,0.4,0.4,0.5,0.6c0,0,0,0,0,0.1c0-0.3,0-0.6,0.1-1c0,0,0.1,0,0.1,0c0.1,1.1,0.2,2.2,0.2,3.4
			c0.1,0.4,0.1,0.9,0,1.2c-0.1,0.4-0.4,0.8-0.6,1.2c-0.2,0.4-0.5,0.8-0.6,1.3c-0.1,0.4-0.3,0.8-0.2,1.3c0,0.3,0.1,1.4,1,0.8
			C119.8,119.5,120,119.2,120.2,118.9z"/>
		<path class="st3" d="M118.4,119.9c-0.3,0-0.5-0.1-0.8-0.1c-0.4,0-0.6,0.1-0.8,0.2c0,0.1,0,0.1,0,0.2c0.1,0.6,0.7,1,1.2,1.4
			c0.6,0.4,1.2,1.1,2,0.9c0.8-0.2,1.6-0.7,2.2-1.3c0.4-0.4,0.5-0.8,0.6-1.2c-0.3,0.2-0.7,0.4-1.1,0.6c-0.5,0.2-2.6,0.8-2.5-0.3
			C118.9,120.2,118.6,120.2,118.4,119.9z"/>
		<path class="st3" d="M122.9,113.9c-0.1,0.7-0.2,1.3-0.4,1.8c-0.3,1.4-1.2,2.5-2.2,3.6c0,0-0.1,0.1-0.1,0.1c1.1,0,2.7-2.1,3.1-2.8
			c0.3-0.7,0.4-1.4,0.3-2.2c-0.1-0.5-0.3-1-0.5-1.5c0,0,0-0.1-0.1-0.1C123,113.2,122.9,113.6,122.9,113.9z"/>
		<path class="st3" d="M107,122.3c-0.3,0.7-1,1.3-1.6,1.7c-0.9,0.7-2,1.1-3.2,1.3c0.3,0,0.5,0,0.8,0c1.2,0,2.3,0,3.5-0.2
			c0.9-0.2,1.8-0.4,2.6-0.8c-0.2,0-0.6-0.1-0.8-0.3C107.7,123.6,107.2,123,107,122.3z"/>
		<path class="st3" d="M123.6,117c-0.1,0.1-0.2,0.3-0.3,0.4c-0.6,0.7-1.3,1.4-2,1.9c-0.4,0.3-0.8,0.5-1.2,0.3
			c-0.1,0.1-0.2,0.2-0.2,0.3c-0.1,0.1-0.2,0.2-0.4,0.3c0.3,0.5,0.8,0.5,1.3,0.3c0.4-0.1,0.8-0.3,1.1-0.5c0.6-0.3,1.6-0.8,1.7-1.5
			C123.7,117.9,123.6,117.5,123.6,117z"/>
		<path class="st3" d="M113.8,121c-1.1,0.8-1.9,1.8-2.9,2.7c-2.9,2.8-11.8,2-18.3,1.3c-1.4-0.2-6.4-0.5-7.5-0.6
			c-1.3-0.1-2.7-0.2-4-0.3c-2.4-0.1-4.9-0.1-7.3-0.6c0,0,0,0,0,0c2.7,0.2,5.4,0.2,8,0.3c1.3,0.1,9.6,0.7,10.8,0.8
			c1.2,0.1,6,0.6,8.6,0.4c1.2-0.1,2.5-0.4,3.5-1c0.9-0.6,1.8-1.3,2.3-2.4c0-0.1,0.1-0.1,0.1-0.1c0,0,0.7,2.8,2.7,2.3
			c1.1-0.3,1.6-1.3,2.4-2.1c1-1,2.1-1.7,3.3-2.3l-21-5.6c0.1,0.2,0.1,0.4,0.2,0.5c0.2,0.5,0.3,1,0.1,1.4c0,0.2-0.1,0.4-0.2,0.6
			c-0.5,0.8-1.2,1.2-1.3,2.2c0,0.5-0.2,0.9-0.5,1.1c-0.5,0.7-1.2,1.2-2,1.6c-1.5,0.7-3,0.6-4.6,0.3c-0.6,0-1.3-0.2-1.9-0.3
			c-0.9-0.1-1.9-0.2-2.8-0.4c-1.2-0.2-2.3-0.4-3.5-0.4c-0.7,0-1.4,0-2.1-0.1c-0.1,0.1-0.1,0.2-0.2,0.3c-0.6,1-1.3,1.8-2.5,1.9
			c0,0,0,0,0,0c0,0,0,0,0,0c-0.7,0-1.4,0.1-2.1,0.1c-0.1,0.1-0.2,0.1-0.3,0.2c-0.2,0.2-0.5,0.3-0.7,0.5c-0.3,0.2-0.5,0.5-0.9,0.6
			c0,0,12.1,0.4,14.2,0.6c2.2,0.2,23.7,2.3,23.7,2.3c0,0,0,0,0,0c1.8-1.1,3.6-2.1,5.2-3.4c1.4-1.1,2.8-2.3,4.2-3.3c0,0,0,0,0,0
			c0-0.1,0-0.3,0-0.4c0-0.2,0-0.5,0-0.7C115.9,119.7,114.6,120.4,113.8,121z"/>
		<path class="st3" d="M94.8,111.1c0.1-0.6-0.1-1.2-0.4-1.8c-0.3-0.4-0.4-0.9-0.6-1.4c-0.2-0.5-0.3-1-0.3-1.5c0-0.1,0.1-0.1,0.1,0
			c0,0.5,0.2,0.9,0.4,1.3c0-0.4,0.2-0.9,0.4-1.3c0.3-0.8,0.8-1.7-0.3-2.2c-1.5-0.7-3,0.1-4.4,0.8c-0.5,0.4-1.2,0.7-1.8,0.8
			c-1.3,0.3-2.6,0.3-3.9,0.6c-1.4,0.3-2.6,0.9-3.5,2c-0.1,0.1-0.2,0.2-0.3,0.4c-0.7,1.6-1.4,3.1-1.9,4.8c-0.3,1.2-0.6,2.5-1.1,3.6
			c-0.3,1-0.7,2-1.2,2.9c0.2,0,0.3,0,0.5,0c0.5,0,1,0,1.5,0c0.5,0,1,0,1.4,0c1.1,0.1,2.2,0.3,3.4,0.4c1.9,0.2,3.8,0.5,5.8,0.4
			c0.6-0.1,1.1-0.2,1.7-0.4c0.3-0.1,0.8-0.3,1.2-0.5c0,0,0,0,0,0c0,0,0.1,0,0.1,0c0.3-0.1,0.5-0.3,0.7-0.5c0.1-0.2,0.3-0.4,0.4-0.6
			c0-0.2,0.1-0.4,0.1-0.6c0-0.4,0.1-0.8,0.4-1.2c0.3-0.5,0.9-0.7,1-1.4c0.1-0.6,0-1.1-0.1-1.7c0,0,0,0,0-0.1c-0.1-0.5-0.3-1.1,0-1.6
			C94.3,111.9,94.7,111.5,94.8,111.1z"/>
	</g>
	<path class="st4" d="M94.4,113.3c0,0,0.3,2.4,0,2.9c-0.3,0.4-1.1,1.5-1.1,1.5s0,1.8-0.4,1.8c-0.5,0-1.3,2.1-3.7,2.2
		c-2.4,0.1-10.3-1.2-10.3-1.2l-3.4-0.3l-1.4,1.8l-2.1,0.8l-1.2-0.4l-2.2,1.9l0.5,0.7c0,0,37.7,3.3,37.8,3.2c0.1-0.1,9.1-6.2,9.1-6.4
		c0-0.1,0.3-1.3,0.5-1.4c0.2-0.2,0.1-1.3,0.1-1.3L94.4,113.3z"/>
	<path class="st0" d="M123.1,112.5c0-0.5,0.1-0.9,0-1.4c0.1-0.8-0.1-1.7-0.5-2.3c-0.6-1.4-3-1.7-4.3-2c-1.6-0.4-3.3-0.9-5-1.2
		c-0.2-0.8-0.7-1.6-1.2-2.3c-0.1-0.2-0.2-0.3-0.3-0.4c-0.1-0.1-0.2-0.2-0.2-0.3c-0.2-0.3-0.5-0.6-0.8-0.9c-0.9-1-2-1.7-3.3-2.2
		c-1.4-0.6-2.8-0.7-4.2-0.7c-0.4-0.1-0.8,0-1.2-0.1c-0.9,0-1.8-0.1-2.7-0.2c-0.7-0.1-1.4-0.4-2.1-0.6c-0.1,0-0.2-0.1-0.2-0.1
		c-0.1-0.1-0.3-0.1-0.4-0.2c-0.8-0.5-1.7-0.8-2.5-1.1c-1.4-0.6-2.9-1.3-4.2-2c-1.8-1-3.7-2.3-5.3-3.6c-0.6-0.7-1.5-1.4-2.2-2
		c-1-0.8-1.9-1.6-2.8-2.5c-1.3-1.2-3.5-2.5-3.8-4.3c0.1-0.3,0.2-0.5,0.3-0.8c0-0.1,0-0.1,0.1-0.2c0.4-1,0.4-2.2,0-3.1
		c-0.5-1-1.5-1.3-1-2.6c0,0,0-0.1,0-0.1c0.3-0.4,0.4-0.8,0.5-1.2c0.1-0.5,0-1-0.2-1.5c-0.1-0.2-0.2-0.4-0.3-0.6
		c-0.5-0.8,0.1-1.5,0.6-2c0.5-0.7,0.8-1.5,0.7-2.4c0-0.1-0.1-0.4-0.2-0.6c0.4-0.1,0.7-0.2,1.1-0.3c0.5-0.2,1.2-0.7,1-1.2
		c0.1,0,0.1,0,0.2,0.1c0.3,0.1,0.6,0.1,0.9,0c0.2-0.1,0.4-0.2,0.5-0.4c0.9-0.6,0.3-3.5,0.3-4.1c0-1.4,0-2.8,0.3-4.1
		c0-0.2,0.1-0.3,0.2-0.5c0.6-1,1.7-1.9,1.7-3.1c0-1.3,0.2-2.6,0.2-3.9c0.2-1.7,0.6-3.2,0.3-4.8c-0.4-1.8-0.9-4.2-2.2-5.6
		c-1.4-1.4-3.3-1.6-5-2.6c-0.9-0.5-1.5-1.3-2.2-2c-0.7-0.9-1.7-1.6-2.9-1.6c-0.8,0-1.5,0.4-2.2,0.7c-1,0.5-1.9,0.6-2.9,0.6
		c-0.7-0.2-1.5-0.3-2.2-0.5c-0.9-0.3-1.9-0.6-2.8-0.7c-1.5-0.2-2.9,0.3-3.9,1.5c-0.4,0.5-0.8,1.2-1.1,1.8c-0.1,0.1-0.1,0.2-0.2,0.3
		c-0.1,0.1-0.3,0.3-0.5,0.4c-0.6,0.4-1.3,0.1-2,0.3c-0.9,0.3-1.1,1.5-1.1,2.4c-0.2,0-0.3-0.1-0.5-0.1c-0.9-0.1-1,1.1-1.8,1.2
		c-0.8,0-1.1,0.5-1.4,1.2c-0.3,0.7-0.4,1.4-0.7,2.1c-0.2,0.3-0.4,0.6-0.8,0.8c-0.3,0.2-0.8,0.3-1.1,0.5c-0.6,0.4-0.6,1.2-0.6,1.9
		c0,0.4,0,0.9-0.1,1.3c-0.2,0.9-1.1,0.7-1.7,1c-0.3,0.1-0.5,0.3-0.7,0.5c-0.1,0.2-0.2,0.3-0.3,0.5c0-0.1-0.1,0.3-0.1,0.5
		c-0.3,1-0.2,2.2-0.6,3c-0.4,0.7-1.2,1.1-1.5,1.9c0,0,0,0,0,0.1c-0.6,0.9-0.7,2.5-0.5,3.4c0.1,0.5,0.2,1,0.2,1.5
		c0.1,0.7-0.3,1.2-0.6,1.8c-0.2,0.4-0.3,0.8-0.3,1.2c0,0.4,0.1,0.8,0.3,1.2c-1.4,0.5-2.8,1-4.2,1.6c-1.5,0.7-2.9,1.6-4.3,2.6
		c-1.3,1-2.5,2.1-3.6,3.2c-1.1,1.1-2,2.3-2.9,3.5c-0.4,0.5-0.9,1-1.2,1.5c0,0.1,0,0.1,0,0.2c-0.5,0.5-0.8,1.2-1.2,1.8
		c-0.3,0.5-0.6,0.9-0.9,1.4c-0.7,1.1-1.3,2.2-1.9,3.3c-0.7,1.3-1.4,2.5-2.1,3.8c-0.6,1.2-1.3,2.3-1.6,3.6c-0.3,0.7-0.6,1.4-0.8,2
		c-0.1,0.4-0.3,0.8-0.4,1.1c-1,2.7-1.8,5.6-2.3,8.4c0,0.1,0.1,0.1,0.1,0c0.4-1,0.6-2,0.9-2.9c0.6-1.5,1.1-3,1.7-4.6c0,0,0,0,0,0
		c1-2.5,2.2-5,3.5-7.4c1.2-2.4,2.9-4.6,4.1-7.1c1-1.4,2-2.8,3.1-4.1c1.5-1.8,3.2-3.4,4.8-5.1c0.1-0.1,0.1-0.1,0.2-0.2
		c1.3-1.1,2.8-2,4.2-2.9c1.2-0.7,2.4-1.2,3.8-1.5c0.7-0.1,1.4-0.2,2.1-0.1c2.3,0.8,3.7,3.2,4.7,5.4c0.7,1.5,1.4,3,2,4.5c0,0,0,0,0,0
		c-0.5-0.7-1.1-1.5-1.7-2.2c-1.2-1.6-2.7-3.4-4.5-4.2c0,0-0.1,0,0,0.1c0.7,0.5,1.3,1.1,1.8,1.6c1.2,2.2,2.7,4.2,3.9,6.4
		c0.7,1.2,1.3,2.5,1.9,3.8c0.4,0.9,0.8,1.9,1.3,2.8c0.2,0.5,0.4,1.1,0.7,1.5c0.4,0.9,0.8,1.8,1.3,2.6c0.2,0.5,0.4,0.9,0.7,1.3
		c0.7,1.2,1.4,2.5,2.2,3.6c0.4,0.8,0.9,1.5,1.4,2.2c0.6,0.9,1.3,1.8,2,2.6c-0.8-0.6-1.5-1.2-2.2-1.9c-1.6-1.7-2.7-3.6-4-5.5
		c0,0-0.1,0-0.1,0c1,2,2.1,3.9,3.5,5.6c0.7,0.8,1.5,1.5,2.3,2.1c0.7,0.5,1.6,1.1,2.5,1.4c0.3,0.2,0.6,0.3,0.8,0.5
		c0.5,0.3,1.1,0.6,1.7,0.8c0,0,0.1,0,0.1,0c0.5,0.3,1.1,0.5,1.7,0.6c1.3,0.5,2.7,0.6,3.9,0.7c0.4,0,0.8,0,1.2,0.1
		c0.7,0.9,0.8,2.1,0.9,3.2c0.1,0.9,0.1,1.8,0.1,2.7c-0.2,1.4-0.4,2.8-0.7,4.2c-0.5,2-1.4,3.6-2.6,5.4c0,0,0,0,0,0
		c-0.3,0.4-0.6,0.8-1,1.1c-0.4,0.3-0.8,0.5-1.3,0.6c-1,0.3-2.2,0.3-3.2,0.3c-1.5,0-2.9-0.2-4.4-0.3c-0.2,0-0.3,0-0.5,0
		c-0.4-0.1-0.8-0.1-1.3-0.2c-0.3-0.1-0.6-0.1-1-0.2c-0.6-0.1-1.1-0.1-1.7-0.2c0,0-0.1,0-0.1,0c0,0,0,0,0,0c-0.5-0.1-1-0.2-1.6-0.2
		c-2.2-0.4-4.3-0.8-6.5-1.2c-2-0.4-4.1-0.7-6-1.2c-0.8-0.2-1.5-0.5-2.1-1c-0.2-0.1-0.3-0.3-0.5-0.4c-0.8-0.8-1.3-1.8-1.8-2.7
		c-1.1-2.1-2.1-4.3-3.1-6.4c-1.1-2.2-2.2-4.3-3.2-6.5c-0.9-2-1.8-4-2.9-5.9c-0.2-0.4-0.3-0.7-0.6-1c0,0-0.1,0-0.1,0
		c1.1,2.6,2.1,5.3,3.3,7.9c1.3,2.9,2.6,5.7,4.1,8.5c1.1,2.1,1.8,4.5,3.5,6.3c0.7,0.7,1.5,1.2,2.3,1.5c0,0,0,0,0,0
		c0.1,0,0.3,0.1,0.4,0.1c0.6,0.2,1.2,0.4,1.7,0.5c1.8,0.5,3.6,0.8,5.4,1.1c2.2,0.4,4.5,0.9,6.7,1.2c0.8,0.2,1.7,0.4,2.6,0.5
		c0.8,0.2,1.6,0.2,2.4,0.3c1.4,0.1,2.8,0.3,4.3,0.5c0.2,0,0.3,0,0.5,0.1c0,0,0,0,0.1,0c1.6,0.2,3.1,0.3,4.7,0.4
		c1.2,0.1,2.5,0.3,3.8,0.2c0.3,0,0.5,0,0.8,0c-0.3,0.2-0.5,0.3-0.8,0.5c-0.5,0.2-0.9,0.5-1.3,0.8c0,0,0,0,0,0.1c0,0,0,0,0,0
		c0,0,0,0.1,0,0.1h0l0,0c0,0.3,0,0.6,0,0.9c0,0,0,0.1,0,0.1l0,0.1c0,0,9.5,0.4,12.3,0.6c2.8,0.3,26.5,3.3,26.5,3.3c0,0,0,0.1,0.1,0
		c1.5-1.3,3.3-2.4,5-3.5c0.8-0.5,1.5-1,2.2-1.6c0.4-0.3,0.9-0.7,1.4-1c0.3-0.2,0.7-0.4,0.9-0.6c0,0,0,0,0.1,0
		c0.2-0.3,0.1-0.8,0.1-1.1c0-0.3,0-0.6-0.1-0.8c0.2,0.3,0.5,0.6,0.7,0.8c0.5,0.5,1.2,1.4,2,1.4c0.3,0,0.6-0.1,0.9-0.1
		c0.8-0.2,1.6-0.6,2.2-1.1c0.7-0.6,0.8-1.3,0.8-2.2c0.1-0.1,0.2-0.2,0.3-0.3c0.6-0.7,0.3-1.7,0.1-2.5
		C124.3,115.3,123.7,113.8,123.1,112.5z M122.9,113.9c0.1-0.4,0.1-0.8,0.2-1.1c0.2,0.6,0.5,1.1,0.5,1.7c0.1,0.8,0,1.5-0.3,2.2
		c-0.4,0.8-1.9,2.8-3.1,2.8c0,0,0.1-0.1,0.1-0.1c1.1-1,1.9-2.2,2.2-3.6C122.7,115.2,122.8,114.6,122.9,113.9z M97.7,100.5
		c0.2-0.1,0.4-0.2,0.6-0.3c0,0,0.1,0,0.1,0c1.2-0.3,2.4-0.4,3.7-0.3c1,0,2,0.2,3,0.5c0.2,0.1,0.5,0.1,0.7,0.2c-2,0.1-4,1.9-5.1,3.2
		c-1.5,1.6-2.7,3.8-3,6c-0.2,0.7-0.2,1.5-0.2,2.2c-0.1,2,1.2,1.7,1.2,1.3c0-2,0.3-3.8,0.9-5.7c0.6-1.4,1.3-2.6,2.3-3.7
		c0.7-0.8,1.6-1.4,2.6-1.9c0.6-0.3,1.2-0.4,1.8-0.6c0.5,0,1-0.1,1.5-0.1c1,0,1.8,0.5,2.6,1.2c1.1,0.9,1.6,2,2.3,3.2
		c-0.4,0-0.7,0-1.1,0c-0.2,0-0.4,0-0.6,0c-2.4-1.8-4.9-0.9-6.7,0.9c-0.6,0.5-1.1,1.2-1.5,1.8c-0.8,1.2-1.3,2.4-1.6,3.6c0,0,0,0,0,0
		c0,0,0-0.1,0-0.1c0,0,0.2-0.4,0.2-0.4c0.6-1.2,0.6-1.3,1.1-2.1c0.5-0.9,1.3-1.7,2.1-2.5c1.3-1.1,3-1.8,4.6-1.2
		c-0.2,0.1-0.4,0.3-0.6,0.4c-1,0.8-2,1.6-3.4,1.4c0,0-0.1,0.1,0,0.1c1.7,0.3,3-0.6,3.4-0.9c0.8-0.4,1.4-0.5,2.2-0.4
		c1,0.1,1.9,0.4,2.9,0.4c1,0,1.7,0,2.6,0.4c0.8,0.3,1.7,0.3,2.5,0.5c0.4,0.1,0.7,0.2,1.1,0.3c0.6,0.2,1.1,0.4,1.6,0.8
		c0.1,0.1,0.2,0.2,0.3,0.3c0.4,0.5,0.3,1.4,0.2,2.1c0,0.2,0,0.3,0,0.5c-0.2,1.1-0.2,2.2-0.3,3.3c-0.2,1.3-0.8,2.3-1.4,3.4
		c-0.2,0.2-0.3,0.4-0.4,0.7c-0.2,0.3-0.4,0.5-0.7,0.7c-0.8,0.6-0.9-0.4-1-0.8c0-0.4,0.1-0.9,0.2-1.3c0.1-0.4,0.4-0.9,0.6-1.3
		c0.3-0.4,0.5-0.8,0.6-1.2c0.1-0.4,0.1-0.8,0-1.2c0.1-1.1-0.1-2.2-0.2-3.4c0,0-0.1,0-0.1,0c0,0.3,0,0.6-0.1,1c0,0,0-0.1,0-0.1
		c-0.1-0.3-0.3-0.4-0.5-0.6c0,0-0.1,0-0.1,0.1c0.2,0.2,0.3,0.4,0.4,0.6c0.1,0.1,0.1,0.3,0.2,0.4c0,0.5-0.1,0.9-0.2,1.4
		c-0.3-0.5-0.7-0.9-1-1.3c-0.3-0.5-0.7-0.8-1-1.2c0,0,0,0,0-0.1c-0.6-0.7-1.3-1.3-2.1-1.9c0,0-0.1,0,0,0c1.1,1.1,2,2,2.7,3.3
		c0.3,0.6,0.8,1.3,1.1,1.9c0.1,0.2,0.1,0.4,0.1,0.6c-0.1,0.9-1.3,0.7-1.8,0.5c-0.6-0.3-1.1-0.9-1.5-1.5c-0.6-0.7-1.2-1.3-1.9-1.9
		c0,0,0,0,0,0c0-0.1-0.1-0.1-0.2-0.1c-0.5-0.4-1.1-0.8-1.6-1.2c0,0-0.1,0-0.1,0.1c0.4,0.4,0.9,0.7,1.3,1c-0.1,0-0.2,0-0.3,0
		c-0.5,0-1-0.1-1.4-0.2c0,0,0,0,0,0c0.4,0.2,0.8,0.3,1.2,0.4c0.3,0.1,0.6,0.2,0.9,0.1c0.5,0.5,1,1,1.4,1.5c0.6,0.8,1.2,1.6,2.2,2.1
		c0.4,0.2,0.8,0.2,1.1,0.1c0.1,0,0.3,0,0.4,0.1c-0.1,0.1-0.1,0.2-0.2,0.3c-0.3,0.5-0.4,1.2-0.5,1.8c-0.1,0.2-0.1,0.4-0.1,0.7
		c0,0.3,0,0.7,0.1,1c-0.4-0.2-1.1-0.2-1.4,0.1c0-0.2,0-0.4,0-0.5c0,0,0-0.1,0-0.1l0,0l-22.2-5.9c0-0.1,0-0.1,0-0.2
		c0-0.1,0.1-0.2,0.1-0.3c0.2-0.4,0.6-0.7,0.8-1.1c0.3-0.7,0.2-1.5-0.2-2.2c-0.2-0.3-0.5-0.6-0.7-0.9c0.4-1.3,1.9-3.3,0.3-4.4
		c-0.1-0.1-0.2-0.1-0.4-0.2c0.5-1.3,1.6-2.4,2.8-3C97.4,100.6,97.5,100.6,97.7,100.5z M94.1,113.9C94.1,114,94.1,114,94.1,113.9
		c0.1,0.6,0.2,1.2,0.1,1.8c-0.1,0.7-0.7,0.9-1,1.4c-0.2,0.4-0.3,0.7-0.4,1.2c0,0.2,0,0.4-0.1,0.6c-0.1,0.2-0.2,0.4-0.4,0.6
		c-0.2,0.2-0.4,0.4-0.7,0.5c0,0-0.1,0-0.1,0c0,0,0,0,0,0c-0.4,0.2-0.9,0.4-1.2,0.5c-0.5,0.2-1.1,0.3-1.7,0.4
		c-1.9,0.1-3.9-0.2-5.8-0.4c-1.1-0.1-2.2-0.3-3.4-0.4c-0.5,0-0.9,0-1.4,0c-0.5,0-1,0-1.5,0c-0.2,0-0.3,0-0.5,0
		c0.5-0.9,1-1.9,1.2-2.9c0.5-1.1,0.8-2.4,1.1-3.6c0.5-1.7,1.2-3.2,1.9-4.8c0.1-0.1,0.2-0.2,0.3-0.4c0.9-1.1,2.2-1.6,3.5-2
		c1.3-0.3,2.6-0.3,3.9-0.6c0.6-0.1,1.3-0.3,1.8-0.8c1.4-0.6,2.9-1.4,4.4-0.8c1.1,0.5,0.6,1.4,0.3,2.2c-0.2,0.4-0.4,0.9-0.4,1.3
		c-0.3-0.4-0.5-0.8-0.4-1.3c0-0.1-0.1-0.1-0.1,0c-0.1,0.5,0,1,0.3,1.5c0.1,0.5,0.3,0.9,0.6,1.4c0.3,0.5,0.5,1.1,0.4,1.8
		c-0.1,0.4-0.5,0.8-0.7,1.2C93.8,112.8,94,113.4,94.1,113.9z M89.5,103.5C89.5,103.5,89.5,103.5,89.5,103.5
		C89.5,103.5,89.5,103.5,89.5,103.5c0.1-0.4,0.2-0.7,0.3-1c0.4-0.9,1.2-1.6,2-2c0.7-0.4,1.5-0.6,2.2-0.8c0.7-0.1,1.3-0.2,2-0.2
		c0.4,0,0.8,0.1,1.2,0.1c-0.6,0.3-1.1,0.7-1.5,1c-0.8,0.7-1.6,1.9-1.7,3c-1.5-0.5-3.1,0.2-4.4,1.1c-0.1-0.3-0.2-0.5-0.3-0.8
		C89.4,103.8,89.5,103.6,89.5,103.5z M83.5,92.7c0.5,1,0.8,2,1.3,3c0,0,0.1,0,0.1,0c-0.1-0.8-0.3-1.6-0.7-2.3
		c0.6,0.4,0.9,1.1,1.3,1.7c0.5,1.1,0.9,2.2,1.2,3.3c0,0,0.1,0,0.1,0c0-0.5-0.1-1.1-0.2-1.6c1.2,1.1,1.3,2.9,1.6,4.4c0,0,0.1,0,0.1,0
		c0-0.3,0.1-0.6,0-0.9c0.2-0.5,0.5,0.1,0.6,0.4c0.1,0.3,0.2,0.6,0.2,1c0.1,0.5,0.1,0.9,0.2,1.4c0,0.1,0,0.3,0,0.4
		c-0.5-1-1.2-1.9-1.7-2.8c-0.3-0.5-0.7-1.1-1-1.6c-0.6-1.1-1.3-2.2-2.1-3.2c-0.4-0.6-0.8-1.2-1.2-1.7c-0.1-0.1-0.2-0.3-0.3-0.4
		c-0.2-0.3-0.4-0.6-0.6-1c-0.2-0.2-0.3-0.5-0.5-0.7c0-0.3-0.1-0.6-0.2-0.8c0-0.3-0.1-0.5-0.2-0.8c0,0,0-0.1,0-0.1
		C81.8,90.2,83.4,92.5,83.5,92.7z M76.3,85c0.5,0.7,0.8,1.6,1.3,2.3c0,0,0.1,0,0.1,0c-0.2-0.7-0.5-1.3-0.8-1.9
		c0.4,0.3,0.9,0.6,1.3,0.9c0.6,0.6,1.1,1.2,1.5,1.9c0.4,0.6,0.7,1.3,1,2c0.2,0.4,0.3,0.8,0.4,1.2c-0.5-0.6-1.1-1.1-1.7-1.6
		c-1.4-1.3-2.8-2.6-4.2-3.8c0,0-0.1,0-0.1,0c0.4,0.6,1.1,1.1,1.6,1.6c0.2,0.2,0.4,0.4,0.7,0.6c0.4,0.4,0.7,0.8,1.1,1.2
		c0.7,0.7,1.4,1.5,2,2.3c0.5,0.7,1,1.4,1.5,2.1c1.1,1.7,2.2,3.3,3.3,4.9c0.6,0.9,1.1,1.8,1.6,2.7c0.4,0.8,0.8,1.7,1.3,2.4
		c0.1,0.1,0.1,0.3,0.2,0.4c0,0.1,0,0.2,0,0.2c0,0,0,0,0,0c0,0,0,0,0,0c-0.7-0.7-1.7-1.2-2.5-1.8c-0.6-0.4-1.5-1.2-1.6-1.9
		c0.2,0.1,0.4,0.2,0.6,0.3c0,0,0.1,0,0-0.1c-0.6-0.4-1.1-0.7-1.6-1.2c-0.3-0.2-0.4-0.5-0.6-0.8c0.6,0.4,1.2,0.7,1.8,0.7
		c0.1,0,0.1-0.1,0-0.1c-0.7-0.4-1.4-0.7-2-1.2c-0.2-0.2-0.5-0.3-0.7-0.5c-0.2-0.2-0.6-0.6-0.1-0.5c0.7,0.4,1.6,0.7,2.3,0.8
		c0,0,0.1-0.1,0-0.1c-1-0.5-2-0.8-2.9-1.4c-0.3-0.2-0.6-0.5-0.9-0.7c-0.2-0.1-0.3-0.3-0.5-0.5c-0.1-0.2,0.2-0.2,0.4-0.2
		c0.3,0.2,0.7,0.3,1,0.4c0,0,0.1,0,0-0.1c-0.7-0.5-2.3-0.9-2.7-1.9c0.5,0.2,0.9,0.4,1.4,0.5c0,0,0.1-0.1,0-0.1
		c-0.9-0.5-1.8-0.9-2.6-1.6c-0.8-0.7-1.7-1.4-2-2.5c0.5,0.4,0.9,0.8,1.1,0.9c0,0,0.1,0,0,0c-0.8-0.9-1.9-1.9-2.2-3.1
		c0.6,0.7,1.4,1.3,2,1.7c0,0,0.1,0,0-0.1c-0.7-0.8-1.4-1.6-2.1-2.4c-0.4-0.4-0.7-0.9-1-1.4c-0.1-0.2-0.3-0.8-0.3-1.2
		c0,0,0-0.1,0-0.1c0,0,0-0.1,0-0.1c0.1-0.2,0.3-0.3,0.7-0.1c0,0,0,0,0,0v0c0,0,0.1,0,0.1,0c0-1.2,1-0.4,1.3-0.1
		C75.6,84.2,76,84.6,76.3,85z M75,96.9C75,96.9,75,96.9,75,96.9c0,0.2,0.1,0.3,0.1,0.4c0.1,0.4,0.2,0.8,0.2,1.2c0,0.7,0,1.4-0.2,2.1
		c-0.2,0.7-0.6,1.4-0.9,2c-0.8,0-1.5,0-2.2,0c0.5-0.7,0.6-1.7,0.7-2.3c0.2-1.2-0.1-2.5-0.2-3.7c-0.1-0.9,0.1-1.7,0.3-2.5
		c0.3-0.7,0.6-1.4,0.9-2.1c0.6-1.5,0.8-3.3,0-4.7c-0.2-0.4-0.5-0.8-0.6-1.2C73,85.7,73,85.5,73,85.3c0,0,0,0.1,0,0.1
		c0.2,0.7,0.6,1.3,1.1,1.9c-0.4,0.6,0.3,1.6,1.1,2.4c-0.1,0.6,0.1,1.1,0.5,1.6c-0.7,1.2-1.2,2.5-1.1,3.9
		C74.7,95.8,74.8,96.3,75,96.9z M81,53.7c-0.1,0.2-0.5,0.3-0.6,0.3c-0.1,0-0.2,0-0.4,0c-0.2-0.1-0.4-0.2-0.5-0.3
		c-0.6-0.3-1.3-0.6-2-0.9c0.4,0,1.6-0.1,2.6,0.2C80.4,53.2,80.7,53.4,81,53.7C81,53.6,81,53.6,81,53.7z M41.3,55.8
		c0.3-0.7,0.9-1.2,1.3-1.8c0.3-0.6,0.2-1.3,0.2-1.9c0-0.8,0.3-1.4,0.7-1.9c0.3-0.2,0.7-0.2,1-0.4c0.5-0.2,0.7-0.8,0.9-1.3
		c0.2-0.8,0-1.9,0.9-2.5c0.2-0.2,0.5-0.3,0.7-0.4c0,0,0.1,0,0.1,0c0,0,0,0,0,0l0,0c0,0,0,0,0,0c0.1-0.1,0.2-0.2,0.3-0.2
		c0.1-0.1,0.2-0.2,0.3-0.4c-0.2,0.8-0.8,1.3-0.9,2.2c0,0.4,0.1,0.9,0,1.3c0,0,0,0,0,0.1c0,0,0,0,0,0c0,0.1,0,0.2,0,0.3
		c-0.1,0.8-1,1-1.6,1.1c-1.2,0.3-2.2,1.3-2,2.6c0,0.1,0,0.2,0,0.3c0,0.5,0.1,1.1-0.4,1.5c-0.1,0.1-0.3,0.3-0.3,0.5
		c0,0.4,0,0.8-0.1,1.1c-0.1,0.1-0.1,0.2-0.2,0.3c-0.1,0.1-0.1,0.1-0.2,0.2c-0.3,0.2-0.5,0.3-0.8,0.5c-0.1,0.1-0.2,0.1-0.2,0.2
		C41.1,56.6,41.1,56.2,41.3,55.8z M68.7,102.4c0.4-0.9,0.4-2.2,0.4-3c0-1-0.1-2-0.1-3c0-0.7,0.1-1.4,0.3-2c0.1-0.2,0.2-0.3,0.2-0.5
		c0.8-1.2,1.7-2.5,2-3.8c0.2-0.7,0.1-1.5-0.2-2.2c-0.3-0.9-1-1.6-1.1-2.6c-0.1-0.9,0.6-1.9,0.8-2.7c0.2-0.9-0.1-1.6-0.5-2.4
		c-0.5-1.1-1.1-2-1.1-3.2c0-1.3,0.5-2.7,0.8-3.9c0,0,0-0.1-0.1,0c-0.8,1.9-1.4,3.8-0.8,5.9c0.3,1,0.9,1.9,1.1,2.9
		c0.1,1-0.6,2-0.9,2.9c-0.4,1.4,0.8,2.6,1.2,3.9c0,0.2,0.1,0.5,0.1,0.7c0.1,0.9-0.4,1.8-0.8,2.6c-0.2,0.3-0.3,0.6-0.5,0.9
		c-0.2,0.3-0.3,0.5-0.4,0.8c-0.3,0.6-0.6,1.1-0.7,1.8c-0.3,0.9-0.2,1.8-0.1,2.7c0,0.4,0,0.8,0,1.2c0,0.5-0.1,1-0.3,1.5
		c-0.2,0.6-0.6,1-1,1.4c-0.6,0-1.1,0-1.7-0.1c-0.6-0.1-1.2-0.3-1.7-0.5c0-1.1,1.1-1.9,1.7-2.8c0.7-1,0.8-1.9,0.7-3.1
		c-0.1-1.6,0.6-3,1.5-4.4c0.2-0.2,0.3-0.5,0.4-0.7c0.5-0.6,0.7-1.5,0.7-2.3c-0.1-1.4-1.1-2.5-1.3-3.9c-0.1-1.3,0.5-2.5,0.2-3.8
		c-0.1-0.6-0.3-1.2-0.6-1.7c-0.5-1-0.6-2-0.5-3.1c0-0.1-0.1-0.1-0.1,0c-0.4,1.2-0.1,2.4,0.3,3.6c0.2,0.4,0.2,0.8,0.3,1.1
		c-0.1,0.9-0.4,1.7-0.6,2.5c-0.2,0.8-0.3,1.6,0.1,2.4c0.4,1,1.1,1.6,1.1,2.7c0,1-0.5,1.8-1,2.6c-0.5,0.5-0.9,1-1.1,1.6
		c-0.5,1.5,0.1,2.8-0.2,4.3c-0.3,1.3-1.4,2.1-2.2,3.1c-0.3,0.4-0.5,0.9-0.6,1.4c-0.4-0.2-0.9-0.4-1.3-0.6c-0.3-0.2-0.6-0.4-0.9-0.6
		c0-0.2,0-0.4,0.1-0.6c0.1-0.6,0.4-1.1,0.7-1.7c0.4-0.8,0.7-1.5,0.8-2.4c0.1-1.2-0.3-2.2,0.1-3.4c0.2-0.5,0.4-1,0.7-1.5
		c0.9-1.3,1.2-2.6,0.5-4.1c-0.4-1-0.8-1.8-1-2.9C61.9,82.2,62,81.1,62,80c0,0-0.1-0.1-0.1,0c-0.3,1.7-0.2,3.6,0.3,5.2
		c0.3,0.9,0.7,1.8,0.7,2.7c0,1.1-0.9,1.9-1.4,2.7c-1,1.6,0,3.4-0.5,5.1c-0.3,1.1-1.4,1.8-1.8,2.8c-0.4-0.5-0.8-1-1.2-1.5
		c-0.4-0.7-0.9-1.3-1.3-2c-0.1-0.4-0.1-0.8-0.1-1.2c0.1-0.9,0.5-1.8,0.9-2.6c0.7-1.5,1.3-2.8,1.2-4.5c-0.1-1.8-0.8-3.5-0.8-5.3
		c-0.1-1.5,0.3-2.8,0.6-4.2c0.6-1,1.4-2.1,1.4-3.3c0-0.6-0.4-1-0.7-1.5c-0.6-1,0.2-1.9,0.4-2.9c0.2-1.3-0.6-2.4-0.8-3.7
		c0-0.4,0-0.7,0.1-1.1c0.2-0.9,0.7-1.7,1-2.5c0.6-1.8-0.1-3.8,0.8-5.6c0.4-0.8,1.3-1,2-1.5c0.5-0.3,0.9-0.9,1.1-1.4
		c0.3-0.9,0.3-1.9,1.1-2.5c0.6-0.5,1.7-0.6,2.4-0.3c0,0,0.1,0,0-0.1c-0.9-0.8-2.6-0.2-3.3,0.7c-0.1,0.1-0.1,0.2-0.2,0.3
		c-0.7,0.7-1,1.7-1.6,2.6c-0.4,0.5-1,0.8-1.4,1.2c-0.1,0.1-0.2,0.2-0.3,0.3c-1.4,1.6-0.5,4-0.9,5.9c-0.3,1.1-0.9,2-1.1,3.1
		c-0.1,0.3-0.1,0.6-0.1,0.9c0,0.9,0.5,1.9,0.6,2.6c0.3,1.2-0.4,2-0.6,3.1c-0.1,0.7,0.3,1.2,0.6,1.8c0.6,1.1-0.3,2.3-0.8,3.2
		c-0.4,0.8-0.9,1.5-1.1,2.3c-0.5,1.3-0.3,3.2,0.2,4.6c0,0.2,0.1,0.3,0.1,0.5c0.4,1.3,0.7,2.8,0.6,4.2c-0.1,0.8-0.5,1.6-0.8,2.4
		c-0.4,0.6-0.8,1.3-1,2c-0.1,0.4-0.2,0.8-0.3,1.2c-0.7-1.2-1.6-2.3-2.3-3.5c-0.1-0.2-0.2-0.4-0.3-0.6c0.9-0.6,1.1-2.6,1.2-3.4
		c0.1-1.2,0.1-2.4-0.2-3.6c-0.1-0.6-0.3-1.1-0.4-1.7c-0.2-1.6-0.2-3.2,0.2-4.8c0.4-1.8,1.3-3.3,1.7-5.1c0.3-1.6-0.3-3-0.7-4.6
		c-0.5-1.8,0.1-3.9,1.1-5.5c0,0,0-0.1-0.1,0c-1,1.3-1.4,2.7-1.5,4.3c0,0.9,0.2,1.7,0.4,2.5c0.3,1.2,0.4,2.2,0.2,3.4
		c-0.4,1.9-1.3,3.6-1.6,5.5c-0.2,1.3-0.3,2.8,0.1,4.1c0,0,0,0.1,0,0.1c0.2,1.1,0.4,2.4,0.4,3.5c-0.1,1.4-0.2,3.3-1.2,4.3
		c-0.5-1-1-1.9-1.5-2.9c0-0.1,0-0.2,0-0.2c0-0.2,0-0.4,0-0.5c0.3-1.6,0-3.3-0.3-4.9c-0.2-1.2-0.3-2.3-0.3-3.5c0-0.9,0.3-1.8,0.4-2.6
		c0.1-0.3,0.2-0.6,0.3-0.8c0.4-1.2,0.9-2.3,1.1-3.5c0.2-0.7,0.3-1.5,0.1-2.3c-0.1-0.6-0.3-1.2-0.6-1.8c-0.4-0.7-1.4-1.3-1.3-2.2
		c0.4-0.4,1-0.4,1.4-0.9c0.5-0.6,0.3-1.6,0.6-2.2c0.5-1,1.9-1.6,2.3-2.7c0.1-0.1,0.1-0.2,0.2-0.4c0,0,0,0,0,0c0.5-0.7,1.3-0.9,2-1.3
		c0.6-0.4,1.1-1,1.5-1.6c0.4-0.7,0.6-1.4,0.9-2.1c0.2-0.6,0.5-1.1,0.9-1.6c0.4-0.5,0.9-0.4,1.4-0.3c0.5,0,0.9-0.1,1.2-0.5
		c0.3-0.4,0.5-0.8,1.1-1c0.5-0.2,1,0.2,1.3,0.4c0.5,0.3,1,0.6,1.7,0.7c1,0.1,1.8-0.3,2.7,0.4c0.1,0.1,0.2-0.1,0.1-0.1
		c-0.5-0.6-1.2-0.6-1.9-0.6c-1.1,0-1.7-0.4-2.6-0.9c-0.6-0.4-1.2-0.5-1.8-0.3c-0.3,0.1-0.6,0.3-0.7,0.5c-0.4,0.6-0.6,0.9-1.4,0.9
		c-1.9-0.1-2.5,1.9-3,3.4c-0.4,1.1-1,2-2.1,2.6c-0.4,0.2-0.7,0.4-0.9,0.6c0.2-0.5,0.1-1.1,0.1-1.7c-0.1-0.7,0-1.1,0.5-1.7
		c0.2-0.2,0.4-0.5,0.3-0.8c-0.1-0.3-0.4-1.3,0.3-1.3c0.2,0,0.4,0,0.6,0c0.3,0,0.5-0.2,0.7-0.4c0.6-0.7,0.2-1.6,1.3-2.1
		c0.5,0,1,0,1.4-0.3c0.4-0.3,0.6-0.7,0.9-1c1.4-0.7,3.5,0.8,4.8,1.2c0.8,0.2,1.5,0.2,2.3-0.1c0.9-0.3,1.7-1.3,2.7-0.7
		c0,0,0.1,0,0.1,0c0,0,0,0,0-0.1c0,0,0,0,0-0.1c-0.1-0.1-0.1-0.1-0.2-0.2c-0.6-0.6-1.5-0.7-2.3-0.3c-0.8,0.4-1.3,0.8-2.2,0.6
		c-0.7-0.1-1.3-0.5-2-0.8c-1-0.4-2.3-0.8-3.3-0.2c-0.4,0.2-0.7,0.8-1,1.1c-0.5,0.6-1.3,0.2-2,0.3c-0.4,0.1-0.7,0.2-1,0.5
		c-0.4,0.4-0.3,1.2-0.8,1.5c-0.9,0.4-1.2,0.7-1,1.7c0.1,0.5,0.1,0.8-0.2,1.2c-0.1,0.2-0.3,0.3-0.4,0.5c-0.2,0.3-0.3,0.6-0.3,1
		c0,0.4,0.1,0.8,0.1,1.3c0,0.3,0,0.5,0,0.8c0,1.2-0.7,1.9-1.7,2.3c-0.9,0.4-1.3,1.1-1.4,2c-0.1,0.9-0.2,1.8-1.4,1.7
		c-0.6,0-1.1-0.1-1.6,0.2c-0.4,0.2-0.6,0.5-0.8,0.8c-0.2,0.3-0.4,0.6-0.6,0.8c-0.9,1.1-2.3,1.1-3.5,0.5c0.5-0.2,1-0.4,1.4-0.7
		c0.6-0.5,0.9-1.2,1-1.9c0.1-0.5,0.2-1,0.5-1.4c0.6-0.4,1.2-0.7,1.6-1.3c0.2-0.4,0.2-0.9,0.2-1.3c-0.1-0.9,0-1.8,0.9-2.4
		c0.7-0.5,1.6-0.5,1.8-1.5c0.1-0.3-0.1-0.7-0.1-1c-0.2-0.7,0-1.3,0.2-2c0.1-0.1,0.1-0.1,0.1-0.2c0,0,0.1,0,0.1-0.1
		c0.4-1.1-0.4-2.1,0.5-3.2c0.5-0.7,1.5-0.9,2.1-1.4c0.7-0.6,0.6-1.3,1-2.1c0.2-0.5,1.1-0.8,1.6-1.1c0,0,0.1,0,0.1-0.1
		c0.7-0.3,1.1-1.2,1.5-1.8c0-0.1,0-0.1-0.1-0.1c-0.4,0.5-0.7,1-1.3,1.4c-0.8,0.5-1.7-0.1-2.5,0.2c-0.4,0.2-0.7,0.7-0.9,1.1
		c-0.4,0.9-0.1,1.8-1.1,2.4c-0.9,0.6-1.7,1.6-1.5,2.8c0.1,0.4,0.2,0.7,0.3,1.1c0.3,0.7-0.4,0.9-0.6,1.4c-0.1,0.4-0.2,0.7-0.1,1
		c0,0.2,0,0.3,0,0.5c0.2,0.9,0.3,1.6-0.7,2c-0.5,0.2-0.8,0.4-1.1,0.8c-0.5,0.6-0.5,1.4-0.5,2.1c0,0.2-0.1,0.4-0.1,0.6
		c-0.2,0.7-0.7,1-1.3,1.4c-0.6,0.4-0.8,1-0.9,1.7c-0.1,0.5-0.2,1-0.4,1.4c-0.5,0.7-1.1,1.1-2.1,1.2c-0.3,0-0.7,0-1,0.1
		c0.4-0.4,0.7-0.9,0.9-1.4c0.2-0.6,0.3-1.3,0.6-1.9c0.3-0.7,1.2-0.8,1.7-1.2c0.7-0.5,0.6-1.5,0.8-2.3c0.2-0.7,0.9-1.3,1.3-2
		c0.3-0.5,0.3-1.1,0.3-1.7c0.1-0.8,0-1.7-0.4-2.4c0,0-0.1,0-0.1,0c0.3,1,0.4,1.9,0.1,2.8c-0.3,0.9-1,1.4-1.6,2
		c-0.4,0.5-0.5,1.1-0.5,1.7c-0.1,1.2-0.6,1.3-1.6,1.7C43,59.8,43,61,42.7,61.9c-0.2,0.4-0.4,0.7-0.8,0.9c-0.4,0.2-0.9,0.4-1.3,0.6
		c-0.5,0.3-1,0.8-1.1,1.4c-0.1-0.1-0.2-0.3-0.2-0.4c-0.2-0.5-0.1-0.9,0-1.4c0.3-0.5,0.7-0.8,1.1-1.3c0.3-0.4,0.2-1,0.2-1.4
		c0-0.7,0.1-1.3,0.3-1.9c0.1-0.2,0.3-0.5,0.5-0.7c0.4-0.4,1-0.6,1.4-1c0.4-0.3,0.3-0.9,0.4-1.3c0-0.2,0.8-0.6,1.1-0.8
		c0.1-0.2,0.2-0.4,0.2-0.6c0-0.3,0-0.6,0-1c0-0.7,0.2-1.4,0.4-2c0.3-0.3,0.6-0.6,1.3-0.7c0.8-0.2,1.3-0.4,1.5-1.2
		c0.1-0.3,0.1-0.6,0.1-0.9c0-0.8,0.4-1.2,1-1.7c0.6-0.6,0.2-1.6,0.3-2.3c0.1-0.1,0.3-0.2,0.5-0.2c0.4,0,0.8,0.1,1.2,0.1
		c0.7,0,1.3-0.6,1.5-1.2c0-0.1,0.1-0.2,0.1-0.3c0,0-0.1-0.1-0.1,0c0,0.1-0.1,0.2-0.1,0.2c0,0,0,0.1-0.1,0.1c0,0,0,0,0,0
		c0,0-0.1,0.1-0.1,0.1c-0.8,0.8-1.8,0-2.9,0.2c-0.3,0.1-0.5,0.2-0.8,0.4c0.3-0.8,0.5-1.8,1.4-1.8c0.5,0,0.8,0.1,1.2-0.4
		c0.5-0.8,1.3-0.4,1.9-0.8c0.5-0.3,0.9-0.9,1.1-1.4c0,0,0,0,0,0c0.1-0.2,0.2-0.3,0.2-0.5c0,0,0-0.1-0.1,0c-0.3,0.4-0.6,0.8-1,1
		c-0.2,0.1-0.4,0.1-0.6,0.2c0.1-0.6,0.3-1.1,0.8-1.5c0.4-0.3,1.1-0.2,1.6-0.3c0.4-0.1,0.8-0.4,1.1-0.7c0.3-0.3,0.6-0.7,0.8-1
		c0.6-0.8,1.2-1.6,2-2.1c0.8-0.5,1.7-0.6,2.6-0.5c0.1,0,0.2,0,0.3,0.1c0.7,0.1,1.5,0.4,2.2,0.6c0.5,0.2,1.1,0.3,1.7,0.4
		c0.3,0.1,0.6,0.1,0.9,0.1c0.5,0.1,0.9,0.1,1.4,0c0.8-0.2,1.5-0.6,2.3-0.8c0.8-0.2,1.5-0.1,2.2,0.2c1,0.7,1.6,1.7,2.5,2.7
		c1.1,1.1,2.8,1.4,4.1,2c2.1,0.9,2.6,3.5,3.1,5.5c0.4,1.6,0,3.2-0.2,4.7c-0.2,1-0.2,2.1-0.2,3.1c0,0.4,0,0.6,0,0.9
		c-0.8-0.6-2-0.8-3-0.8c-0.8,0-1.5,0-2.2,0.1c-0.7,0-1.3,0.1-2,0.3c-0.2,0.1-0.5,0.1-0.7,0.2c0,0,0,0.1,0,0.1c0.4,0,1.1-0.1,1.5-0.1
		c1.6,0.2,1.7,0.7,2.7,1.2c0.5,0.3,0.9,0.4,1.4,0.7c0.5,0.3,1,0.5,0.7,1.2c-0.2,0.6-0.3,1.4-0.3,2c-0.1,0.8-0.1,1.6-0.1,2.5
		c0,1.2,0.6,3,0.1,4.1c-0.3,0.4-0.7,0.7-1.3,0.4c-0.3-0.1-0.5-0.4-0.8-0.5c-0.3-0.1-0.6-0.2-1-0.2c-1,0-1.5-0.7-1.1-1.7c0,0,0,0,0,0
		c-0.2,0.3-0.3,0.6-0.2,1c0,0,0,0,0,0c-0.7-0.2-1.4,0.3-1.9,0.7c-0.5,0.4-1.1,0.8-1.4,1.4c-0.5,0.4-1.1,0.7-1.7,1
		c-0.7,0.3-1.2,0.6-1.7,1c-0.1-1.4,0.5-2.8,0.9-4.1c0.3-1.2,0.2-2.2-0.3-3.3c-0.6-1.4-1.5-2.5-2-4c-0.6-1.7,0.1-2.9,0.6-4.5
		c0,0-0.1-0.1-0.1,0c-1.7,2.4-1,5,0.2,7.4c0.4,0.7,0.8,1.5,1,2.3c0.3,1-0.1,2-0.4,2.9c-0.4,1.2-0.9,2.6-0.4,3.8c0,0-0.1,0.1-0.1,0.1
		c-0.8,1.1-1,2.3-1.9,3.3c-0.7,0.7-1,1.6-1.3,2.6c0,0.1,0.1,0.1,0.1,0c0.4-1.2,0.7-2,1.8-2.8c0.8-0.6,1.1-1.8,1.6-2.7
		c0.6-1.2,1.8-1.4,2.9-1.9c0.6-0.3,1.1-0.7,1.5-1.2c0.6-0.5,1.3-0.9,2.1-1c0.6,0,1.2,0.3,1.7,0.5c0.2,0.1,0.5,0.1,0.8,0.2
		c0.4,0.7-0.6,1.1-1.3,1.3c-0.9,0.2-1.8,0.3-2.7,0.7c-1.7,0.8-3.2,1.8-3.8,3.7c0,0,0,0.1,0.1,0c0.4-0.6,0.8-1.2,1.3-1.7
		c0.5-0.5,1.2-0.9,1.9-1.2c0.9-0.5,1.9-0.7,2.9-0.9c0.1,0,0.2,0,0.3,0c0.2,0.5,0.1,1.4,0,1.8c-0.3,0.9-1,1.5-1.1,2.4
		c-0.1,0.7,0.5,1.6,0.6,2.3c0,0.1,0,0.2,0,0.3c-0.2,0.7-0.7,1.2-0.9,1.9c0,0.1-0.1,0.2-0.1,0.4c0,0,0,0.1,0,0.1c0,0.2,0,0.5,0.1,0.8
		c0.2,0.5,0.7,0.9,1,1.3c0.3,0.5,0.4,0.9,0.3,1.4c-0.2,0.6-0.4,1.2-0.7,1.9c-0.2,0.5-0.3,0.9-0.2,1.4c-0.2-0.1-0.5-0.2-0.7,0
		c-0.2,0.2-0.3,0.5-0.2,0.8c-0.2-0.1-0.4-0.2-0.5-0.1c0.1-0.7,0.2-1.3,0.1-2c-0.1-0.9-0.6-1.7-1-2.4c-0.6-1.1-0.8-2.2-0.7-3.4
		c0,0-0.1-0.1-0.1,0c-0.4,1.9,0.5,3.3,1.1,5.1c0.6,1.9-0.6,3.7,0,5.5c0.3,0.9,0.9,1.5,1.1,2.4c0.3,1.3-0.3,2.6-0.8,3.8
		c-0.4,0.9-0.8,1.9-1,2.9c-0.2,0.8-0.1,1.7,0,2.3c0.1,1.8-0.3,3.4-1.4,4.8C69.9,102.5,69.3,102.5,68.7,102.4z M68.3,122
		c-0.3-0.1-0.5-0.3-0.6-0.6c-0.1-0.5,0-1,0.1-1.4c0.2-0.5,0.4-1,0.7-1.5c0.3-0.6,0.6-1.3,0.9-1.9c1.3-2.3,1.8-5,1.7-7.6
		c0-0.9,0-1.7-0.2-2.6c-0.1-0.9-0.4-2-1.1-2.8c0.6,0,1.1,0.1,1.7,0.1c0.7,0,1.3,0,2,0.1c0.2,0,0.5,0,0.7,0.1
		c0.8,0.2,1.6,0.3,2.2,0.9c0.3,0.3,0.5,0.6,0.7,0.9c0.4,0.9,0.4,1.9,0.4,2.9c0,0.6,0,1.2,0,1.8c-0.2,1.2-0.3,2.5-0.6,3.8
		c-0.3,1.4-0.7,2.7-1.1,4.1c-0.3,0.7-0.6,1.4-0.9,2.1c-0.2,0.4-0.4,0.8-0.6,1.2c-0.1,0.2-0.2,0.3-0.4,0.4c-0.4,0.2-0.7,0.4-1.2,0.5
		c-0.7,0.2-1.4,0-2.1,0C70.3,122.3,69.1,122.3,68.3,122z M116.6,120.3C116.6,120.3,116.6,120.3,116.6,120.3c-1.5,1-2.9,2.2-4.3,3.3
		c-1.6,1.3-3.4,2.4-5.2,3.4c0,0,0,0,0,0c0,0-21.6-2.1-23.7-2.3c-2.2-0.2-14.2-0.6-14.2-0.6c0.3-0.1,0.6-0.4,0.9-0.6
		c0.2-0.2,0.5-0.4,0.7-0.5c0.1-0.1,0.2-0.1,0.3-0.2c0.7,0,1.4,0,2.1-0.1c0,0,0,0,0,0c0,0,0,0,0,0c1.2,0,1.9-0.9,2.5-1.9
		c0.1-0.1,0.1-0.2,0.2-0.3c0.7,0,1.4,0,2.1,0.1c1.2,0.1,2.3,0.2,3.5,0.4c0.9,0.2,1.9,0.3,2.8,0.4c0.6,0.1,1.3,0.3,1.9,0.3
		c1.5,0.3,3.1,0.4,4.6-0.3c0.8-0.4,1.5-0.9,2-1.6c0.3-0.3,0.5-0.7,0.5-1.1c0-1,0.8-1.4,1.3-2.2c0.1-0.2,0.2-0.4,0.2-0.6
		c0.2-0.5,0.1-0.9-0.1-1.4c-0.1-0.2-0.1-0.4-0.2-0.5l21,5.6c-1.2,0.6-2.4,1.3-3.3,2.3c-0.8,0.8-1.3,1.8-2.4,2.1
		c-2,0.5-2.7-2.3-2.7-2.3c-0.1,0-0.1,0-0.1,0.1c-0.5,1.1-1.4,1.8-2.3,2.4c-1,0.7-2.3,0.9-3.5,1c-2.7,0.3-7.4-0.2-8.6-0.4
		c-1.3-0.2-9.5-0.7-10.8-0.8c-2.7-0.1-5.4-0.1-8-0.3c0,0,0,0,0,0c2.4,0.5,4.9,0.4,7.3,0.6c1.3,0.1,2.7,0.2,4,0.3
		c1.1,0.1,6.1,0.4,7.5,0.6c6.5,0.7,15.4,1.5,18.3-1.3c0.9-0.9,1.8-1.9,2.9-2.7c0.8-0.6,2.1-1.3,2.8-1.8c0,0.2,0,0.5,0,0.7
		C116.6,120,116.6,120.2,116.6,120.3z M109.1,124.3c-0.8,0.4-1.7,0.6-2.6,0.8c-1.2,0.2-2.3,0.3-3.5,0.2c-0.3,0-0.5,0-0.8,0
		c1.2-0.2,2.3-0.6,3.2-1.3c0.6-0.4,1.3-1,1.6-1.7c0.2,0.8,0.7,1.3,1.3,1.8C108.5,124.2,108.9,124.3,109.1,124.3z M122.2,121.1
		c-0.6,0.6-1.4,1.1-2.2,1.3c-0.8,0.2-1.4-0.4-2-0.9c-0.5-0.4-1.1-0.7-1.2-1.4c0-0.1,0-0.1,0-0.2c0.3-0.2,0.5-0.3,0.8-0.2
		c0.3,0,0.5,0.1,0.8,0.1c0.2,0.3,0.5,0.4,0.8,0.3c-0.1,1.1,1.9,0.6,2.5,0.3c0.4-0.2,0.8-0.4,1.1-0.6
		C122.7,120.3,122.6,120.7,122.2,121.1z M123.6,118.4c-0.1,0.8-1.1,1.2-1.7,1.5c-0.4,0.2-0.7,0.3-1.1,0.5c-0.6,0.2-1.1,0.2-1.3-0.3
		c0.1,0,0.3-0.2,0.4-0.3c0.1-0.1,0.2-0.2,0.2-0.3c0.4,0.1,0.8,0,1.2-0.3c0.7-0.5,1.4-1.2,2-1.9c0.1-0.1,0.2-0.3,0.3-0.4
		C123.6,117.5,123.7,117.9,123.6,118.4z"/>
</g>
</svg>
